<svg xmlns="http://www.w3.org/2000/svg" width="666" height="375" viewBox="0 0 666 375" version="1.1"><path d="M 328 54.500 C 328 56.500, 327.500 57, 325.500 57 C 323.500 57, 323 57.500, 323 59.500 C 323 61.611, 322.533 62, 320 62 C 317 62, 317 62, 317 72.500 C 317 83, 317 83, 320 83 C 323 83, 323 83, 323 91 C 323 99, 323 99, 317.500 99 C 312.300 99, 312 99.136, 312 101.500 C 312 103.500, 311.500 104, 309.500 104 C 307.500 104, 307 104.500, 307 106.500 C 307 108.500, 306.500 109, 304.500 109 C 302.389 109, 302 109.467, 302 112 C 302 114.533, 301.611 115, 299.500 115 C 297.167 115, 297 115.333, 297 120 C 297 124.889, 296.933 125, 294 125 C 291 125, 291 125, 291 208.500 C 291 292, 291 292, 294 292 C 296.533 292, 297 292.389, 297 294.500 C 297 296.500, 297.500 297, 299.500 297 C 301.500 297, 302 297.500, 302 299.500 C 302 301.833, 302.333 302, 307 302 C 311.667 302, 312 302.167, 312 304.500 C 312 307, 312 307, 361.500 307 C 411 307, 411 307, 411 304.500 C 411 302.167, 411.333 302, 416 302 C 420.667 302, 421 301.833, 421 299.500 C 421 297.389, 421.467 297, 424 297 C 426.533 297, 427 296.611, 427 294.500 C 427 292.500, 427.500 292, 429.500 292 C 432 292, 432 292, 432 208.500 C 432 125, 432 125, 429.500 125 C 427.167 125, 427 124.667, 427 120 C 427 115.111, 426.933 115, 424 115 C 421.333 115, 421 114.667, 421 112 C 421 109.467, 420.611 109, 418.500 109 C 416.500 109, 416 108.500, 416 106.500 C 416 104.500, 415.500 104, 413.500 104 C 411.500 104, 411 103.500, 411 101.500 C 411 99.167, 410.667 99, 406 99 C 401 99, 401 99, 401 91 C 401 83.133, 401.042 83, 403.500 83 C 406 83, 406 83, 406 72.500 C 406 62, 406 62, 403.500 62 C 401.500 62, 401 61.500, 401 59.500 C 401 57.389, 400.533 57, 398 57 C 395.467 57, 395 56.611, 395 54.500 C 395 52, 395 52, 361.500 52 C 328 52, 328 52, 328 54.500 M 328 59.500 C 328 61.500, 327.500 62, 325.500 62 C 323.389 62, 323 62.467, 323 65 C 323 67.533, 323.389 68, 325.500 68 C 327.500 68, 328 68.500, 328 70.500 C 328 72.500, 327.500 73, 325.500 73 C 323.167 73, 323 73.333, 323 78 C 323 82.667, 323.167 83, 325.500 83 C 327.611 83, 328 83.467, 328 86 C 328 89, 328 89, 361.500 89 C 395 89, 395 89, 395 86 C 395 83.333, 395.333 83, 398 83 C 400.933 83, 401 82.889, 401 78 C 401 73.111, 400.933 73, 398 73 C 395.467 73, 395 72.611, 395 70.500 C 395 68.389, 395.467 68, 398 68 C 400.667 68, 401 67.667, 401 65 C 401 62.333, 400.667 62, 398 62 C 395.467 62, 395 61.611, 395 59.500 C 395 57, 395 57, 361.500 57 C 328 57, 328 57, 328 59.500 M 328 75.513 C 328 78.027, 328 78.027, 361.250 77.763 C 394.500 77.500, 394.500 77.500, 394.820 75.250 C 395.139 73, 395.139 73, 361.570 73 C 328 73, 328 73, 328 75.513 M 328 96.500 C 328 98.500, 327.500 99, 325.500 99 C 323.500 99, 323 99.500, 323 101.500 C 323 103.864, 322.700 104, 317.500 104 C 312.300 104, 312 104.136, 312 106.500 C 312 108.500, 311.500 109, 309.500 109 C 307.389 109, 307 109.467, 307 112 C 307 114.533, 306.611 115, 304.500 115 C 302.167 115, 302 115.333, 302 120 C 302 124.667, 301.833 125, 299.500 125 C 297 125, 297 125, 297 135.500 C 297 146, 297 146, 299.500 146 C 301.500 146, 302 145.500, 302 143.500 C 302 141.167, 302.333 141, 307 141 C 311.637 141, 312 141.178, 312 143.445 C 312 145.653, 311.539 145.920, 307.250 146.195 C 303.197 146.455, 302.453 146.830, 302.180 148.750 C 301.949 150.379, 301.190 151, 299.430 151 C 297 151, 297 151, 297 221.500 C 297 292, 297 292, 299.500 292 C 301.500 292, 302 292.500, 302 294.500 C 302 296.833, 302.333 297, 307 297 C 311.667 297, 312 297.167, 312 299.500 C 312 302, 312 302, 361.500 302 C 411 302, 411 302, 411 299.500 C 411 297.167, 411.333 297, 416 297 C 420.667 297, 421 296.833, 421 294.500 C 421 292.389, 421.467 292, 424 292 C 427 292, 427 292, 427 221.500 C 427 151, 427 151, 424.108 151 C 421.858 151, 421.078 150.446, 420.589 148.500 C 420.244 147.125, 419.494 146, 418.922 146 C 418.350 146, 418.220 146.563, 418.633 147.250 C 419.215 148.218, 419.059 148.238, 417.942 147.338 C 417.149 146.700, 415.150 146.025, 413.500 145.838 C 411.279 145.588, 410.500 144.980, 410.500 143.500 C 410.500 141.792, 411.267 141.456, 415.750 141.198 C 420.791 140.908, 421 140.997, 421 143.448 C 421 145.617, 421.450 146, 424 146 C 427 146, 427 146, 427 135.500 C 427 125, 427 125, 424 125 C 421.067 125, 421 124.889, 421 120 C 421 115.333, 420.833 115, 418.500 115 C 416.389 115, 416 114.533, 416 112 C 416 109.467, 415.611 109, 413.500 109 C 411.500 109, 411 108.500, 411 106.500 C 411 104.167, 410.667 104, 406 104 C 401.333 104, 401 103.833, 401 101.500 C 401 99.389, 400.533 99, 398 99 C 395.467 99, 395 98.611, 395 96.500 C 395 94, 395 94, 361.500 94 C 328 94, 328 94, 328 96.500 M 312 138 C 312 141, 312 141, 360.500 141 C 387.175 141, 409.337 141.113, 409.750 141.250 C 410.163 141.387, 410.641 140.037, 410.813 138.250 C 411.127 135, 411.127 135, 361.563 135 C 312 135, 312 135, 312 138 M 302 153.500 C 302 155.833, 302.333 156, 307 156 C 311.667 156, 312 156.167, 312 158.500 C 312 161, 312 161, 361.500 161 C 411 161, 411 161, 411 158.500 C 411 156.167, 411.333 156, 416 156 C 420.667 156, 421 155.833, 421 153.500 C 421 151.167, 420.667 151, 416 151 C 411.333 151, 411 151.167, 411 153.500 C 411 156, 411 156, 361.500 156 C 312 156, 312 156, 312 153.500 C 312 151.167, 311.667 151, 307 151 C 302.333 151, 302 151.167, 302 153.500 M 317 195.500 C 317 197.500, 316.500 198, 314.500 198 C 312 198, 312 198, 312 213.500 C 312 229, 312 229, 314.500 229 C 316.500 229, 317 229.500, 317 231.500 C 317 234, 317 234, 361.500 234 C 406 234, 406 234, 406 231.500 C 406 229.500, 406.500 229, 408.500 229 C 411 229, 411 229, 411 213.500 C 411 198, 411 198, 408.500 198 C 406.500 198, 406 197.500, 406 195.500 C 406 193, 406 193, 361.500 193 C 317 193, 317 193, 317 195.500 M 317 213.500 C 317 229, 317 229, 320 229 C 323 229, 323 229, 323 216 C 323 203, 323 203, 325.500 203 C 327.500 203, 328 203.500, 328 205.500 C 328 207.500, 328.500 208, 330.500 208 C 332.611 208, 333 208.467, 333 211 C 333 213.533, 332.611 214, 330.500 214 C 328.056 214, 328 214.167, 328 221.500 C 328 229, 328 229, 335.500 229 C 343 229, 343 229, 343 221.500 C 343 214.167, 342.944 214, 340.500 214 C 338.389 214, 338 213.533, 338 211 C 338 208.467, 338.389 208, 340.500 208 C 342.500 208, 343 207.500, 343 205.500 C 343 203.389, 343.467 203, 346 203 C 349 203, 349 203, 349 216 C 349 229, 349 229, 351.500 229 C 354 229, 354 229, 354 216 C 354 203, 354 203, 356.500 203 C 359 203, 359 203, 359 213.500 C 359 224, 359 224, 367 224 C 374.867 224, 375 224.042, 375 226.500 C 375 228.500, 375.500 229, 377.500 229 C 380 229, 380 229, 380 216 C 380 203, 380 203, 382.500 203 C 384.864 203, 385 203.300, 385 208.500 C 385 213.700, 385.136 214, 387.500 214 C 389.500 214, 390 214.500, 390 216.500 C 390 218.500, 389.500 219, 387.500 219 C 385.167 219, 385 219.333, 385 224 C 385 229, 385 229, 390 229 C 394.667 229, 395 228.833, 395 226.500 C 395 224.389, 395.467 224, 398 224 C 400.533 224, 401 224.389, 401 226.500 C 401 228.500, 401.500 229, 403.500 229 C 406 229, 406 229, 406 213.500 C 406 198, 406 198, 361.500 198 C 317 198, 317 198, 317 213.500 M 395 205.500 C 395 207.500, 394.500 208, 392.500 208 C 390.389 208, 390 208.467, 390 211 C 390 213.533, 390.389 214, 392.500 214 C 394.611 214, 395 213.533, 395 211 C 395 208.333, 395.333 208, 398 208 C 400.533 208, 401 207.611, 401 205.500 C 401 203.389, 400.533 203, 398 203 C 395.467 203, 395 203.389, 395 205.500 M 333 216.500 C 333 218.500, 333.500 219, 335.500 219 C 337.500 219, 338 218.500, 338 216.500 C 338 214.500, 337.500 214, 335.500 214 C 333.500 214, 333 214.500, 333 216.500 M 390 221.500 C 390 223.500, 390.500 224, 392.500 224 C 394.500 224, 395 223.500, 395 221.500 C 395 219.500, 394.500 219, 392.500 219 C 390.500 219, 390 219.500, 390 221.500 M 317 242.500 C 317 244.500, 316.500 245, 314.500 245 C 312.056 245, 312 245.167, 312 252.500 C 312 259.833, 312.056 260, 314.500 260 C 316.611 260, 317 260.467, 317 263 C 317 265.970, 317.056 266, 322.500 266 C 327.944 266, 328 265.970, 328 263 C 328 260.467, 328.389 260, 330.500 260 C 332.500 260, 333 259.500, 333 257.500 C 333 255.500, 332.500 255, 330.500 255 C 328.500 255, 328 255.500, 328 257.500 C 328 259.864, 327.700 260, 322.500 260 C 317 260, 317 260, 317 252.500 C 317 245, 317 245, 322.500 245 C 327.700 245, 328 245.136, 328 247.500 C 328 249.500, 328.500 250, 330.500 250 C 332.500 250, 333 249.500, 333 247.500 C 333 245.500, 332.500 245, 330.500 245 C 328.500 245, 328 244.500, 328 242.500 C 328 240.136, 327.700 240, 322.500 240 C 317.300 240, 317 240.136, 317 242.500 M 338 253 C 338 266, 338 266, 340.500 266 C 342.864 266, 343 265.700, 343 260.500 C 343 255, 343 255, 348.500 255 C 354 255, 354 255, 354 260.500 C 354 265.700, 354.136 266, 356.500 266 C 359 266, 359 266, 359 253 C 359 240, 359 240, 356.500 240 C 354.167 240, 354 240.333, 354 245 C 354 250, 354 250, 348.500 250 C 343 250, 343 250, 343 245 C 343 240.333, 342.833 240, 340.500 240 C 338 240, 338 240, 338 253 M 369 242.500 C 369 244.500, 368.500 245, 366.500 245 C 364.056 245, 364 245.167, 364 252.500 C 364 259.833, 364.056 260, 366.500 260 C 368.611 260, 369 260.467, 369 263 C 369 265.970, 369.056 266, 374.500 266 C 379.944 266, 380 265.970, 380 263 C 380 260.467, 380.389 260, 382.500 260 C 384.944 260, 385 259.833, 385 252.500 C 385 245.167, 384.944 245, 382.500 245 C 380.500 245, 380 244.500, 380 242.500 C 380 240.136, 379.700 240, 374.500 240 C 369.300 240, 369 240.136, 369 242.500 M 395 242.500 C 395 244.500, 394.500 245, 392.500 245 C 390.056 245, 390 245.167, 390 252.500 C 390 259.833, 390.056 260, 392.500 260 C 394.611 260, 395 260.467, 395 263 C 395 265.970, 395.056 266, 400.500 266 C 405.944 266, 406 265.970, 406 263 C 406 260.467, 406.389 260, 408.500 260 C 410.500 260, 411 259.500, 411 257.500 C 411 255.500, 410.500 255, 408.500 255 C 406.500 255, 406 255.500, 406 257.500 C 406 259.864, 405.700 260, 400.500 260 C 395 260, 395 260, 395 252.500 C 395 245, 395 245, 400.500 245 C 405.700 245, 406 245.136, 406 247.500 C 406 249.500, 406.500 250, 408.500 250 C 410.500 250, 411 249.500, 411 247.500 C 411 245.500, 410.500 245, 408.500 245 C 406.500 245, 406 244.500, 406 242.500 C 406 240.136, 405.700 240, 400.500 240 C 395.300 240, 395 240.136, 395 242.500 M 369 252.500 C 369 260, 369 260, 374.500 260 C 380 260, 380 260, 380 252.500 C 380 245, 380 245, 374.500 245 C 369 245, 369 245, 369 252.500" stroke="none" fill="#000000" fill-rule="evenodd"/><path d="M 328 59.500 C 328 61.500, 327.500 62, 325.500 62 C 323.389 62, 323 62.467, 323 65 C 323 67.533, 323.389 68, 325.500 68 C 327.500 68, 328 68.500, 328 70.500 C 328 73, 328 73, 357.250 72.781 C 386.500 72.562, 386.500 72.562, 358.832 72.031 C 343.614 71.739, 330.826 71.162, 330.415 70.750 C 330.003 70.338, 330.192 70, 330.833 70 C 331.475 70, 332 69.550, 332 69 C 332 68.450, 331.148 68, 330.107 68 C 329.066 68, 327.958 67.333, 327.645 66.517 C 327.289 65.589, 326.407 65.273, 325.288 65.673 C 324.224 66.054, 324.576 65.440, 326.158 64.156 C 327.619 62.970, 329.757 62, 330.908 62 C 332.058 62, 333 61.550, 333 61 C 333 60.450, 332.464 60, 331.809 60 C 331.154 60, 331.491 59.339, 332.559 58.532 C 334.395 57.143, 334.324 57.062, 331.250 57.032 C 328.442 57.004, 328 57.340, 328 59.500 M 390 58.500 C 390.685 59.325, 390.852 60.033, 390.372 60.074 C 389.893 60.115, 391.300 60.982, 393.500 62 C 395.700 63.018, 396.938 63.885, 396.250 63.926 C 395.563 63.967, 395 64.848, 395 65.883 C 395 66.956, 394.096 68.003, 392.899 68.316 C 391.744 68.618, 391.079 69.318, 391.420 69.871 C 391.762 70.424, 391.245 71.341, 390.271 71.908 C 388.791 72.770, 389.033 72.944, 391.750 72.970 C 394.161 72.992, 395.004 73.452, 395.015 74.750 C 395.028 76.243, 395.171 76.279, 395.983 75 C 396.590 74.045, 396.584 73.379, 395.968 73.167 C 395.436 72.983, 395 71.746, 395 70.417 C 395 68.398, 395.494 68, 398 68 C 400.667 68, 401 67.667, 401 65 C 401 62.333, 400.667 62, 398 62 C 395.467 62, 395 61.611, 395 59.500 C 395 57.367, 394.541 57, 391.878 57 C 389.215 57, 388.939 57.221, 390 58.500 M 323 79.949 C 323 82.537, 323.380 83, 325.500 83 C 327.611 83, 328 83.467, 328 86 C 328 89, 328 89, 361.500 89 C 395 89, 395 89, 395 85.673 C 395 82.546, 395.180 82.373, 398 82.787 C 400.834 83.203, 400.997 83.041, 400.948 79.863 C 400.895 76.515, 400.888 76.510, 399.326 78.750 C 398.462 79.987, 397.306 81, 396.756 81 C 396.159 81, 396.218 80.442, 396.902 79.618 C 397.844 78.483, 397.332 78.227, 394.023 78.181 C 390.388 78.131, 390.094 78.308, 391.001 80.002 C 391.720 81.345, 391.649 82.101, 390.753 82.659 C 390.064 83.089, 376.736 83.467, 361.136 83.500 C 333.523 83.558, 332.752 83.506, 332.012 81.530 C 331.557 80.314, 331.702 79.205, 332.376 78.765 C 332.994 78.361, 331.925 78.038, 330 78.047 C 326.877 78.062, 326.688 78.207, 328.250 79.392 C 329.212 80.123, 330 81.062, 330 81.479 C 330 81.896, 328.425 81.036, 326.500 79.568 C 323 76.898, 323 76.898, 323 79.949 M 387.704 85.104 C 388.495 85.895, 389.330 85.903, 390.654 85.134 C 392.272 84.193, 392.136 84.057, 389.550 84.030 C 387.399 84.008, 386.899 84.299, 387.704 85.104" stroke="none" fill="#593819" fill-rule="evenodd"/><path d="M 332.559 58.518 C 331.491 59.333, 331.154 60, 331.809 60 C 332.464 60, 333 60.450, 333 61 C 333 61.550, 331.945 62, 330.655 62 C 329.365 62, 327.453 62.977, 326.405 64.172 C 325.357 65.366, 325.066 66.013, 325.757 65.609 C 326.498 65.175, 327.260 65.515, 327.614 66.437 C 327.944 67.296, 329.066 68, 330.107 68 C 332.168 68, 332.795 69.981, 330.750 70.030 C 329.967 70.049, 330.086 70.404, 331.069 70.979 C 332.877 72.037, 389.271 72.568, 390.931 71.543 C 391.537 71.168, 391.755 70.413, 391.416 69.864 C 391.076 69.315, 391.699 68.630, 392.800 68.342 C 393.925 68.048, 395.011 66.722, 395.280 65.315 C 395.674 63.252, 395.243 62.632, 392.828 61.790 C 391.217 61.228, 390.142 60.525, 390.440 60.226 C 390.739 59.928, 390.502 59.105, 389.914 58.397 C 388.231 56.369, 335.228 56.481, 332.559 58.518 M 324.453 74.411 C 322.714 75.683, 322.800 75.930, 325.999 78.852 C 327.862 80.554, 329.634 81.700, 329.935 81.398 C 330.237 81.097, 329.760 80.445, 328.876 79.950 C 327.846 79.374, 327.433 78.184, 327.728 76.642 C 328.304 73.630, 326.863 72.648, 324.453 74.411 M 395.607 75.582 C 394.751 77.812, 394.818 78, 396.469 78 C 397.430 78, 397.729 78.604, 397.334 79.750 C 396.844 81.171, 397.032 81.124, 398.334 79.500 C 399.215 78.400, 399.951 76.713, 399.968 75.750 C 400.008 73.535, 396.445 73.398, 395.607 75.582 M 332.368 79.485 C 330.873 83.379, 331.827 83.518, 359.125 83.391 C 393.374 83.231, 390.750 83.451, 390.613 80.750 C 390.500 78.500, 390.500 78.500, 361.725 78.235 C 336.775 78.005, 332.872 78.171, 332.368 79.485 M 387.704 85.104 C 388.495 85.895, 389.330 85.903, 390.654 85.134 C 392.272 84.193, 392.136 84.057, 389.550 84.030 C 387.399 84.008, 386.899 84.299, 387.704 85.104" stroke="none" fill="#8f3e00" fill-rule="evenodd"/><path d="M 315.362 144.500 C 315.045 145.325, 314.159 146, 313.393 146 C 312.627 146, 312 146.450, 312 147 C 312 147.550, 310.023 148, 307.607 148 C 304.640 148, 303.029 148.483, 302.643 149.488 C 302.329 150.306, 302.393 150.928, 302.786 150.870 C 303.179 150.811, 305.413 150.816, 307.750 150.882 C 311.585 150.988, 312 151.244, 312 153.500 C 312 155.741, 311.595 156, 308.082 156 C 305.927 156, 303.429 156.282, 302.531 156.626 C 301.189 157.141, 301.016 156.785, 301.558 154.626 C 302.143 152.294, 301.925 152, 299.608 152 C 297 152, 297 152, 297 220.309 C 297 292.142, 297.072 293.338, 301.303 291.714 C 302.541 291.239, 302.851 291.704, 302.698 293.802 C 302.511 296.344, 302.775 296.518, 307.250 296.805 C 311.539 297.080, 312 297.347, 312 299.555 C 312 302, 312 302, 360.250 301.985 C 386.788 301.976, 409.120 301.577, 409.878 301.096 C 410.636 300.616, 410.945 299.719, 410.564 299.103 C 409.696 297.699, 413.204 296.330, 416.998 296.593 C 419.239 296.748, 419.962 296.286, 420.437 294.395 C 420.801 292.943, 421.770 292, 422.897 292 C 423.919 292, 425.248 291.406, 425.850 290.680 C 426.620 289.753, 426.958 268.959, 426.986 220.792 C 427.022 160.475, 426.844 152.154, 425.513 151.643 C 423.133 150.730, 421 152.013, 421.001 154.357 C 421.001 156.316, 420.560 156.469, 415.864 156.144 C 410.800 155.794, 410.734 155.826, 411.225 158.394 C 411.723 161, 411.723 161, 361.861 161 C 312 161, 312 161, 312 158.500 C 312 156, 312 156, 361.059 156 C 393.510 156, 409.909 155.661, 409.500 155 C 409.160 154.450, 409.359 154, 409.941 154 C 410.523 154, 411 153.213, 411 152.250 C 410.999 150.804, 411.874 150.515, 416.028 150.584 C 422.471 150.691, 422.162 148.619, 415.672 148.195 C 413.102 148.028, 411 147.465, 411 146.945 C 411 146.425, 410.325 146, 409.500 146 C 408.675 146, 408 145.325, 408 144.500 C 408 143.188, 402.219 143, 361.969 143 C 321.974 143, 315.862 143.197, 315.362 144.500 M 318.800 193.069 C 317.448 193.404, 316.557 194.331, 316.639 195.319 C 316.715 196.244, 316.378 197.056, 315.889 197.125 C 315.400 197.194, 314.438 197.306, 313.750 197.375 C 312.807 197.469, 312.500 201.433, 312.500 213.500 C 312.500 226.537, 312.754 229.446, 313.873 229.209 C 314.789 229.015, 315.031 229.477, 314.600 230.601 C 314.082 231.950, 314.230 232.054, 315.348 231.126 C 316.453 230.209, 316.717 230.335, 316.621 231.735 C 316.554 232.706, 316.837 233.613, 317.250 233.750 C 317.663 233.887, 337.769 234, 361.930 234 C 405.861 234, 405.861 234, 406.180 231.750 C 406.405 230.170, 407.186 229.492, 408.803 229.474 C 411.100 229.448, 411.107 229.405, 411.303 213.724 C 411.483 199.340, 411.351 198, 409.750 198 C 408.788 198, 408 197.523, 408 196.941 C 408 196.359, 407.550 196.160, 407 196.500 C 406.450 196.840, 406 196.191, 406 195.059 C 406 193.199, 405.395 193.001, 399.750 193.007 C 396.313 193.010, 377.210 192.898, 357.300 192.757 C 337.390 192.615, 320.065 192.756, 318.800 193.069 M 398.639 239.817 C 395.848 240.046, 394.640 240.661, 394.281 242.034 C 394.008 243.079, 392.933 244.204, 391.892 244.534 C 390.260 245.052, 390 246.154, 390 252.567 C 390 259.750, 390.378 260.605, 393.324 260.094 C 393.778 260.015, 393.864 260.412, 393.515 260.975 C 393.167 261.539, 393.359 262, 393.941 262 C 394.523 262, 394.999 263.012, 394.999 264.250 C 394.997 266.347, 395.364 266.477, 400.391 266.164 C 405.445 265.849, 405.821 265.644, 406.367 262.914 C 406.816 260.672, 407.501 260, 409.336 260 C 411.319 260, 411.645 259.592, 411.262 257.591 C 410.998 256.207, 409.886 254.936, 408.651 254.604 C 405.546 253.771, 404.800 253.867, 405.506 255.009 C 405.848 255.564, 405.849 256.899, 405.508 257.976 C 404.993 259.599, 404.083 259.897, 400.193 259.717 C 395.500 259.500, 395.500 259.500, 395.208 252.359 C 394.917 245.218, 394.917 245.218, 399.708 245.359 C 403.586 245.473, 404.603 245.881, 405.040 247.500 C 405.701 249.952, 411 250.973, 411 248.648 C 411 247.832, 411.265 246.474, 411.588 245.631 C 412.040 244.454, 411.520 244.146, 409.339 244.300 C 407.121 244.456, 406.435 244.031, 406.195 242.352 C 405.847 239.919, 404.186 239.362, 398.639 239.817 M 316.885 240.750 C 316.822 241.162, 316.858 242.337, 316.966 243.361 C 317.091 244.534, 316.672 245.042, 315.832 244.736 C 315.099 244.468, 314.619 243.631, 314.764 242.875 C 314.913 242.103, 314.365 242.351, 313.514 243.441 C 312.480 244.767, 312 247.677, 312 252.622 C 312 259.368, 312.153 259.883, 314.250 260.180 C 315.973 260.425, 316.491 261.145, 316.461 263.250 C 316.422 265.938, 316.552 266, 322.211 266 C 327.977 266, 328 265.988, 328 263 C 328 260.467, 328.389 260, 330.500 260 C 332.584 260, 333 259.524, 333 257.139 C 333 254.626, 332.696 254.336, 330.500 254.755 C 328.649 255.109, 328 255.865, 328 257.666 C 328 259.946, 327.689 260.085, 323.050 259.873 C 320.328 259.749, 318.329 259.277, 318.609 258.824 C 318.889 258.371, 318.641 258, 318.059 258 C 316.921 258, 316.640 250.947, 317.630 247.250 C 317.962 246.012, 318.657 245, 319.176 245 C 319.694 245, 319.863 245.412, 319.552 245.916 C 319.241 246.419, 320.273 246.346, 321.846 245.752 C 325.431 244.399, 328 245.324, 328 247.969 C 328 249.469, 328.654 250, 330.500 250 C 332.876 250, 333.207 249.360, 332.954 245.250 C 332.929 244.838, 331.804 244.645, 330.454 244.822 C 328.401 245.091, 328 244.722, 328 242.572 C 328 240.121, 327.741 240, 322.500 240 C 319.475 240, 316.948 240.338, 316.885 240.750 M 337.804 253.272 C 337.500 266.543, 337.500 266.543, 340 266.522 C 342.300 266.502, 342.540 266.059, 343 261 C 343.500 255.500, 343.500 255.500, 348.750 255.198 C 354 254.895, 354 254.895, 354 260.331 C 354 265.335, 354.199 265.805, 356.500 266.245 C 358.947 266.713, 359.002 266.588, 359.100 260.361 C 359.411 240.579, 359.339 240, 356.555 240 C 354.347 240, 354.080 240.461, 353.805 244.750 C 353.500 249.500, 353.500 249.500, 348.500 249.500 C 343.500 249.500, 343.500 249.500, 343.195 244.750 C 342.922 240.493, 342.642 240, 340.499 240 C 338.113 240, 338.108 240.028, 337.804 253.272 M 368.820 242.250 C 368.614 243.696, 367.696 244.614, 366.250 244.820 C 363.895 245.154, 364.008 244.585, 363.571 258.231 C 363.516 259.959, 364.064 260.466, 366 260.481 C 368.066 260.497, 368.493 260.978, 368.461 263.250 C 368.422 265.938, 368.552 266, 374.211 266 C 379.977 266, 380 265.988, 380 263 C 380 260.394, 380.362 260, 382.750 259.998 C 385.500 259.996, 385.500 259.996, 385.500 252.092 C 385.500 247.745, 385.158 244.400, 384.741 244.659 C 383.182 245.625, 380 243.796, 380 241.933 C 380 240.260, 379.270 240, 374.570 240 C 369.699 240, 369.106 240.232, 368.820 242.250 M 369.607 246.582 C 368.718 248.897, 368.895 257.286, 369.864 258.815 C 370.403 259.665, 372.255 260.018, 375.099 259.815 C 379.500 259.500, 379.500 259.500, 379.796 252.750 C 379.958 249.037, 379.733 245.943, 379.296 245.872 C 375.808 245.313, 373.871 245.400, 373.416 246.135 C 373.122 246.611, 372.346 246.993, 371.691 246.985 C 370.975 246.975, 371.099 246.582, 372 246 C 373.302 245.159, 373.283 245.029, 371.857 245.015 C 370.953 245.007, 369.941 245.712, 369.607 246.582" stroke="none" fill="#522400" fill-rule="evenodd"/><path d="M 328 54.500 C 328 56.500, 327.500 57, 325.500 57 C 323.500 57, 323 57.500, 323 59.500 C 323 61.611, 322.533 62, 320 62 C 317 62, 317 62, 317 72.500 C 317 83, 317 83, 320 83 C 323 83, 323 83, 323 91 C 323 99, 323 99, 317.500 99 C 312.300 99, 312 99.136, 312 101.500 C 312 103.500, 311.500 104, 309.500 104 C 307.500 104, 307 104.500, 307 106.500 C 307 108.500, 306.500 109, 304.500 109 C 302.389 109, 302 109.467, 302 112 C 302 114.533, 301.611 115, 299.500 115 C 297.167 115, 297 115.333, 297 120 C 297 124.889, 296.933 125, 294 125 C 291 125, 291 125, 291 208.500 C 291 292, 291 292, 294 292 C 296.533 292, 297 292.389, 297 294.500 C 297 296.500, 297.500 297, 299.500 297 C 301.500 297, 302 297.500, 302 299.500 C 302 301.833, 302.333 302, 307 302 C 311.667 302, 312 302.167, 312 304.500 C 312 307, 312 307, 361.500 307 C 411 307, 411 307, 411 304.500 C 411 302.167, 411.333 302, 416 302 C 420.667 302, 421 301.833, 421 299.500 C 421 297.389, 421.467 297, 424 297 C 426.533 297, 427 296.611, 427 294.500 C 427 292.500, 427.500 292, 429.500 292 C 432 292, 432 292, 432 208.500 C 432 125, 432 125, 429.500 125 C 427.167 125, 427 124.667, 427 120 C 427 115.111, 426.933 115, 424 115 C 421.333 115, 421 114.667, 421 112 C 421 109.467, 420.611 109, 418.500 109 C 416.500 109, 416 108.500, 416 106.500 C 416 104.500, 415.500 104, 413.500 104 C 411.500 104, 411 103.500, 411 101.500 C 411 99.167, 410.667 99, 406 99 C 401 99, 401 99, 401 91 C 401 83.133, 401.042 83, 403.500 83 C 406 83, 406 83, 406 72.500 C 406 62, 406 62, 403.500 62 C 401.500 62, 401 61.500, 401 59.500 C 401 57.389, 400.533 57, 398 57 C 395.467 57, 395 56.611, 395 54.500 C 395 52, 395 52, 361.500 52 C 328 52, 328 52, 328 54.500 M 328 59.500 C 328 61.500, 327.500 62, 325.500 62 C 323.389 62, 323 62.467, 323 65 C 323 67.533, 323.389 68, 325.500 68 C 327.500 68, 328 68.500, 328 70.500 C 328 72.500, 327.500 73, 325.500 73 C 323.167 73, 323 73.333, 323 78 C 323 82.667, 323.167 83, 325.500 83 C 327.611 83, 328 83.467, 328 86 C 328 89, 328 89, 361.500 89 C 395 89, 395 89, 395 86 C 395 83.333, 395.333 83, 398 83 C 400.933 83, 401 82.889, 401 78 C 401 73.111, 400.933 73, 398 73 C 395.467 73, 395 72.611, 395 70.500 C 395 68.389, 395.467 68, 398 68 C 400.667 68, 401 67.667, 401 65 C 401 62.333, 400.667 62, 398 62 C 395.467 62, 395 61.611, 395 59.500 C 395 57, 395 57, 361.500 57 C 328 57, 328 57, 328 59.500 M 328 75.513 C 328 78.027, 328 78.027, 361.250 77.763 C 394.500 77.500, 394.500 77.500, 394.820 75.250 C 395.139 73, 395.139 73, 361.570 73 C 328 73, 328 73, 328 75.513 M 328 96.500 C 328 98.500, 327.500 99, 325.500 99 C 323.500 99, 323 99.500, 323 101.500 C 323 103.864, 322.700 104, 317.500 104 C 312.300 104, 312 104.136, 312 106.500 C 312 108.500, 311.500 109, 309.500 109 C 307.389 109, 307 109.467, 307 112 C 307 114.533, 306.611 115, 304.500 115 C 302.167 115, 302 115.333, 302 120 C 302 124.667, 301.833 125, 299.500 125 C 297 125, 297 125, 297 135.500 C 297 146, 297 146, 299.500 146 C 301.500 146, 302 145.500, 302 143.500 C 302 141.167, 302.333 141, 307 141 C 311.637 141, 312 141.178, 312 143.445 C 312 145.653, 311.539 145.920, 307.250 146.195 C 303.197 146.455, 302.453 146.830, 302.180 148.750 C 301.949 150.379, 301.190 151, 299.430 151 C 297 151, 297 151, 297 221.500 C 297 292, 297 292, 299.500 292 C 301.500 292, 302 292.500, 302 294.500 C 302 296.833, 302.333 297, 307 297 C 311.667 297, 312 297.167, 312 299.500 C 312 302, 312 302, 361.500 302 C 411 302, 411 302, 411 299.500 C 411 297.167, 411.333 297, 416 297 C 420.667 297, 421 296.833, 421 294.500 C 421 292.389, 421.467 292, 424 292 C 427 292, 427 292, 427 221.500 C 427 151, 427 151, 424.108 151 C 421.858 151, 421.078 150.446, 420.589 148.500 C 420.244 147.125, 419.494 146, 418.922 146 C 418.350 146, 418.220 146.563, 418.633 147.250 C 419.215 148.218, 419.059 148.238, 417.942 147.338 C 417.149 146.700, 415.150 146.025, 413.500 145.838 C 411.279 145.588, 410.500 144.980, 410.500 143.500 C 410.500 141.792, 411.267 141.456, 415.750 141.198 C 420.791 140.908, 421 140.997, 421 143.448 C 421 145.617, 421.450 146, 424 146 C 427 146, 427 146, 427 135.500 C 427 125, 427 125, 424 125 C 421.067 125, 421 124.889, 421 120 C 421 115.333, 420.833 115, 418.500 115 C 416.389 115, 416 114.533, 416 112 C 416 109.467, 415.611 109, 413.500 109 C 411.500 109, 411 108.500, 411 106.500 C 411 104.167, 410.667 104, 406 104 C 401.333 104, 401 103.833, 401 101.500 C 401 99.389, 400.533 99, 398 99 C 395.467 99, 395 98.611, 395 96.500 C 395 94, 395 94, 361.500 94 C 328 94, 328 94, 328 96.500 M 312 138 C 312 141, 312 141, 360.500 141 C 387.175 141, 409.337 141.113, 409.750 141.250 C 410.163 141.387, 410.641 140.037, 410.813 138.250 C 411.127 135, 411.127 135, 361.563 135 C 312 135, 312 135, 312 138 M 302 153.500 C 302 155.833, 302.333 156, 307 156 C 311.667 156, 312 156.167, 312 158.500 C 312 161, 312 161, 361.500 161 C 411 161, 411 161, 411 158.500 C 411 156.167, 411.333 156, 416 156 C 420.667 156, 421 155.833, 421 153.500 C 421 151.167, 420.667 151, 416 151 C 411.333 151, 411 151.167, 411 153.500 C 411 156, 411 156, 361.500 156 C 312 156, 312 156, 312 153.500 C 312 151.167, 311.667 151, 307 151 C 302.333 151, 302 151.167, 302 153.500 M 317 195.500 C 317 197.500, 316.500 198, 314.500 198 C 312 198, 312 198, 312 213.500 C 312 229, 312 229, 314.500 229 C 316.500 229, 317 229.500, 317 231.500 C 317 234, 317 234, 361.500 234 C 406 234, 406 234, 406 231.500 C 406 229.500, 406.500 229, 408.500 229 C 411 229, 411 229, 411 213.500 C 411 198, 411 198, 408.500 198 C 406.500 198, 406 197.500, 406 195.500 C 406 193, 406 193, 361.500 193 C 317 193, 317 193, 317 195.500 M 317 213.500 C 317 229, 317 229, 320 229 C 323 229, 323 229, 323 216 C 323 203, 323 203, 325.500 203 C 327.500 203, 328 203.500, 328 205.500 C 328 207.500, 328.500 208, 330.500 208 C 332.611 208, 333 208.467, 333 211 C 333 213.533, 332.611 214, 330.500 214 C 328.056 214, 328 214.167, 328 221.500 C 328 229, 328 229, 335.500 229 C 343 229, 343 229, 343 221.500 C 343 214.167, 342.944 214, 340.500 214 C 338.389 214, 338 213.533, 338 211 C 338 208.467, 338.389 208, 340.500 208 C 342.500 208, 343 207.500, 343 205.500 C 343 203.389, 343.467 203, 346 203 C 349 203, 349 203, 349 216 C 349 229, 349 229, 351.500 229 C 354 229, 354 229, 354 216 C 354 203, 354 203, 356.500 203 C 359 203, 359 203, 359 213.500 C 359 224, 359 224, 367 224 C 374.867 224, 375 224.042, 375 226.500 C 375 228.500, 375.500 229, 377.500 229 C 380 229, 380 229, 380 216 C 380 203, 380 203, 382.500 203 C 384.864 203, 385 203.300, 385 208.500 C 385 213.700, 385.136 214, 387.500 214 C 389.500 214, 390 214.500, 390 216.500 C 390 218.500, 389.500 219, 387.500 219 C 385.167 219, 385 219.333, 385 224 C 385 229, 385 229, 390 229 C 394.667 229, 395 228.833, 395 226.500 C 395 224.389, 395.467 224, 398 224 C 400.533 224, 401 224.389, 401 226.500 C 401 228.500, 401.500 229, 403.500 229 C 406 229, 406 229, 406 213.500 C 406 198, 406 198, 361.500 198 C 317 198, 317 198, 317 213.500 M 395 205.500 C 395 207.500, 394.500 208, 392.500 208 C 390.389 208, 390 208.467, 390 211 C 390 213.533, 390.389 214, 392.500 214 C 394.611 214, 395 213.533, 395 211 C 395 208.333, 395.333 208, 398 208 C 400.533 208, 401 207.611, 401 205.500 C 401 203.389, 400.533 203, 398 203 C 395.467 203, 395 203.389, 395 205.500 M 333 216.500 C 333 218.500, 333.500 219, 335.500 219 C 337.500 219, 338 218.500, 338 216.500 C 338 214.500, 337.500 214, 335.500 214 C 333.500 214, 333 214.500, 333 216.500 M 390 221.500 C 390 223.500, 390.500 224, 392.500 224 C 394.500 224, 395 223.500, 395 221.500 C 395 219.500, 394.500 219, 392.500 219 C 390.500 219, 390 219.500, 390 221.500 M 317 242.500 C 317 244.500, 316.500 245, 314.500 245 C 312.056 245, 312 245.167, 312 252.500 C 312 259.833, 312.056 260, 314.500 260 C 316.611 260, 317 260.467, 317 263 C 317 265.970, 317.056 266, 322.500 266 C 327.944 266, 328 265.970, 328 263 C 328 260.467, 328.389 260, 330.500 260 C 332.500 260, 333 259.500, 333 257.500 C 333 255.500, 332.500 255, 330.500 255 C 328.500 255, 328 255.500, 328 257.500 C 328 259.864, 327.700 260, 322.500 260 C 317 260, 317 260, 317 252.500 C 317 245, 317 245, 322.500 245 C 327.700 245, 328 245.136, 328 247.500 C 328 249.500, 328.500 250, 330.500 250 C 332.500 250, 333 249.500, 333 247.500 C 333 245.500, 332.500 245, 330.500 245 C 328.500 245, 328 244.500, 328 242.500 C 328 240.136, 327.700 240, 322.500 240 C 317.300 240, 317 240.136, 317 242.500 M 338 253 C 338 266, 338 266, 340.500 266 C 342.864 266, 343 265.700, 343 260.500 C 343 255, 343 255, 348.500 255 C 354 255, 354 255, 354 260.500 C 354 265.700, 354.136 266, 356.500 266 C 359 266, 359 266, 359 253 C 359 240, 359 240, 356.500 240 C 354.167 240, 354 240.333, 354 245 C 354 250, 354 250, 348.500 250 C 343 250, 343 250, 343 245 C 343 240.333, 342.833 240, 340.500 240 C 338 240, 338 240, 338 253 M 369 242.500 C 369 244.500, 368.500 245, 366.500 245 C 364.056 245, 364 245.167, 364 252.500 C 364 259.833, 364.056 260, 366.500 260 C 368.611 260, 369 260.467, 369 263 C 369 265.970, 369.056 266, 374.500 266 C 379.944 266, 380 265.970, 380 263 C 380 260.467, 380.389 260, 382.500 260 C 384.944 260, 385 259.833, 385 252.500 C 385 245.167, 384.944 245, 382.500 245 C 380.500 245, 380 244.500, 380 242.500 C 380 240.136, 379.700 240, 374.500 240 C 369.300 240, 369 240.136, 369 242.500 M 395 242.500 C 395 244.500, 394.500 245, 392.500 245 C 390.056 245, 390 245.167, 390 252.500 C 390 259.833, 390.056 260, 392.500 260 C 394.611 260, 395 260.467, 395 263 C 395 265.970, 395.056 266, 400.500 266 C 405.944 266, 406 265.970, 406 263 C 406 260.467, 406.389 260, 408.500 260 C 410.500 260, 411 259.500, 411 257.500 C 411 255.500, 410.500 255, 408.500 255 C 406.500 255, 406 255.500, 406 257.500 C 406 259.864, 405.700 260, 400.500 260 C 395 260, 395 260, 395 252.500 C 395 245, 395 245, 400.500 245 C 405.700 245, 406 245.136, 406 247.500 C 406 249.500, 406.500 250, 408.500 250 C 410.500 250, 411 249.500, 411 247.500 C 411 245.500, 410.500 245, 408.500 245 C 406.500 245, 406 244.500, 406 242.500 C 406 240.136, 405.700 240, 400.500 240 C 395.300 240, 395 240.136, 395 242.500 M 369 252.500 C 369 260, 369 260, 374.500 260 C 380 260, 380 260, 380 252.500 C 380 245, 380 245, 374.500 245 C 369 245, 369 245, 369 252.500" stroke="none" fill="#000000" fill-rule="evenodd"/><path d="M 399 108 C 399 108.550, 399.450 109, 400 109 C 400.550 109, 401 109.765, 401 110.700 C 401 112.022, 401.267 112.133, 402.200 111.200 C 403.963 109.437, 404.808 109.723, 405.294 112.250 C 405.666 114.179, 405.747 114.108, 405.864 111.750 C 405.955 109.912, 405.503 109, 404.500 109 C 403.675 109, 403 108.550, 403 108 C 403 107.450, 402.100 107, 401 107 C 399.900 107, 399 107.450, 399 108 M 323 200.500 C 323 202.611, 322.533 203, 320 203 C 317 203, 317 203, 317 213.500 C 317 224, 317 224, 320 224 C 323 224, 323 224, 323 213.500 C 323 203, 323 203, 328 203 C 332.667 203, 333 202.833, 333 200.500 C 333 198.167, 332.667 198, 328 198 C 323.333 198, 323 198.167, 323 200.500 M 395 200.500 C 395 202.611, 395.467 203, 398 203 C 400.533 203, 401 203.389, 401 205.500 C 401 207.500, 401.500 208, 403.500 208 C 405.500 208, 406 207.500, 406 205.500 C 406 203.500, 405.500 203, 403.500 203 C 401.500 203, 401 202.500, 401 200.500 C 401 198.389, 400.533 198, 398 198 C 395.467 198, 395 198.389, 395 200.500 M 328 224.106 C 328 228.877, 328.075 229, 331 229 C 333.514 229, 334 228.605, 334 226.559 C 334 225.216, 333.511 223.816, 332.913 223.446 C 332.315 223.077, 332.018 222.038, 332.254 221.137 C 332.554 219.990, 331.982 219.457, 330.341 219.356 C 328.186 219.223, 328 219.600, 328 224.106 M 395.063 221.250 C 395.013 223.416, 394.522 224, 392.750 224.001 C 391.056 224.001, 390.464 224.618, 390.356 226.501 C 390.240 228.511, 390.680 229, 392.606 229 C 394.471 229, 395 228.466, 395 226.583 C 395 225.254, 395.474 224.009, 396.054 223.815 C 396.772 223.576, 396.792 222.674, 396.117 220.982 C 395.127 218.500, 395.127 218.500, 395.063 221.250 M 405 220.930 C 405 222.137, 404.157 223.023, 402.750 223.294 C 400.821 223.666, 400.892 223.747, 403.250 223.864 C 405.553 223.978, 406 223.594, 406 221.500 C 406 220.125, 405.775 219, 405.500 219 C 405.225 219, 405 219.869, 405 220.930" stroke="none" fill="#8d8680" fill-rule="evenodd"/><path d="M 317 200.500 C 317 202.611, 317.467 203, 320 203 C 322.533 203, 323 202.611, 323 200.500 C 323 198.389, 322.533 198, 320 198 C 317.467 198, 317 198.389, 317 200.500 M 401 200.500 C 401 202.500, 401.500 203, 403.500 203 C 405.500 203, 406 202.500, 406 200.500 C 406 198.500, 405.500 198, 403.500 198 C 401.500 198, 401 198.500, 401 200.500 M 317 226.500 C 317 228.611, 317.467 229, 320 229 C 322.533 229, 323 228.611, 323 226.500 C 323 224.389, 322.533 224, 320 224 C 317.467 224, 317 224.389, 317 226.500 M 401 226.500 C 401 228.500, 401.500 229, 403.500 229 C 405.500 229, 406 228.500, 406 226.500 C 406 224.500, 405.500 224, 403.500 224 C 401.500 224, 401 224.500, 401 226.500" stroke="none" fill="#66584d" fill-rule="evenodd"/><path d="M 315.362 144.500 C 315.045 145.325, 314.159 146, 313.393 146 C 312.627 146, 312 146.450, 312 147 C 312 147.550, 310.023 148, 307.607 148 C 304.640 148, 303.029 148.483, 302.643 149.488 C 302.329 150.306, 302.393 150.928, 302.786 150.870 C 303.179 150.811, 305.413 150.816, 307.750 150.882 C 311.585 150.988, 312 151.244, 312 153.500 C 312 155.741, 311.595 156, 308.082 156 C 305.927 156, 303.429 156.282, 302.531 156.626 C 301.189 157.141, 301.016 156.785, 301.558 154.626 C 302.143 152.294, 301.925 152, 299.608 152 C 297 152, 297 152, 297 220.309 C 297 292.142, 297.072 293.338, 301.303 291.714 C 302.541 291.239, 302.851 291.704, 302.698 293.802 C 302.511 296.344, 302.775 296.518, 307.250 296.805 C 311.539 297.080, 312 297.347, 312 299.555 C 312 302, 312 302, 360.250 301.985 C 386.788 301.976, 409.120 301.577, 409.878 301.096 C 410.636 300.616, 410.945 299.719, 410.564 299.103 C 409.696 297.699, 413.204 296.330, 416.998 296.593 C 419.239 296.748, 419.962 296.286, 420.437 294.395 C 420.801 292.943, 421.770 292, 422.897 292 C 423.919 292, 425.248 291.406, 425.850 290.680 C 426.620 289.753, 426.958 268.959, 426.986 220.792 C 427.022 160.475, 426.844 152.154, 425.513 151.643 C 423.133 150.730, 421 152.013, 421.001 154.357 C 421.001 156.316, 420.560 156.469, 415.864 156.144 C 410.800 155.794, 410.734 155.826, 411.225 158.394 C 411.723 161, 411.723 161, 361.861 161 C 312 161, 312 161, 312 158.500 C 312 156, 312 156, 361.059 156 C 393.510 156, 409.909 155.661, 409.500 155 C 409.160 154.450, 409.359 154, 409.941 154 C 410.523 154, 411 153.213, 411 152.250 C 410.999 150.804, 411.874 150.515, 416.028 150.584 C 422.471 150.691, 422.162 148.619, 415.672 148.195 C 413.102 148.028, 411 147.465, 411 146.945 C 411 146.425, 410.325 146, 409.500 146 C 408.675 146, 408 145.325, 408 144.500 C 408 143.188, 402.219 143, 361.969 143 C 321.974 143, 315.862 143.197, 315.362 144.500 M 318.800 193.069 C 317.448 193.404, 316.557 194.331, 316.639 195.319 C 316.715 196.244, 316.378 197.056, 315.889 197.125 C 315.400 197.194, 314.438 197.306, 313.750 197.375 C 312.807 197.469, 312.500 201.433, 312.500 213.500 C 312.500 226.537, 312.754 229.446, 313.873 229.209 C 314.789 229.015, 315.031 229.477, 314.600 230.601 C 314.082 231.950, 314.230 232.054, 315.348 231.126 C 316.453 230.209, 316.717 230.335, 316.621 231.735 C 316.554 232.706, 316.837 233.613, 317.250 233.750 C 317.663 233.887, 337.769 234, 361.930 234 C 405.861 234, 405.861 234, 406.180 231.750 C 406.405 230.170, 407.186 229.492, 408.803 229.474 C 411.100 229.448, 411.107 229.405, 411.303 213.724 C 411.483 199.340, 411.351 198, 409.750 198 C 408.788 198, 408 197.523, 408 196.941 C 408 196.359, 407.550 196.160, 407 196.500 C 406.450 196.840, 406 196.191, 406 195.059 C 406 193.199, 405.395 193.001, 399.750 193.007 C 396.313 193.010, 377.210 192.898, 357.300 192.757 C 337.390 192.615, 320.065 192.756, 318.800 193.069 M 398.639 239.817 C 395.848 240.046, 394.640 240.661, 394.281 242.034 C 394.008 243.079, 392.933 244.204, 391.892 244.534 C 390.260 245.052, 390 246.154, 390 252.567 C 390 259.750, 390.378 260.605, 393.324 260.094 C 393.778 260.015, 393.864 260.412, 393.515 260.975 C 393.167 261.539, 393.359 262, 393.941 262 C 394.523 262, 394.999 263.012, 394.999 264.250 C 394.997 266.347, 395.364 266.477, 400.391 266.164 C 405.445 265.849, 405.821 265.644, 406.367 262.914 C 406.816 260.672, 407.501 260, 409.336 260 C 411.319 260, 411.645 259.592, 411.262 257.591 C 410.998 256.207, 409.886 254.936, 408.651 254.604 C 405.546 253.771, 404.800 253.867, 405.506 255.009 C 405.848 255.564, 405.849 256.899, 405.508 257.976 C 404.993 259.599, 404.083 259.897, 400.193 259.717 C 395.500 259.500, 395.500 259.500, 395.208 252.359 C 394.917 245.218, 394.917 245.218, 399.708 245.359 C 403.586 245.473, 404.603 245.881, 405.040 247.500 C 405.701 249.952, 411 250.973, 411 248.648 C 411 247.832, 411.265 246.474, 411.588 245.631 C 412.040 244.454, 411.520 244.146, 409.339 244.300 C 407.121 244.456, 406.435 244.031, 406.195 242.352 C 405.847 239.919, 404.186 239.362, 398.639 239.817 M 316.885 240.750 C 316.822 241.162, 316.858 242.337, 316.966 243.361 C 317.091 244.534, 316.672 245.042, 315.832 244.736 C 315.099 244.468, 314.619 243.631, 314.764 242.875 C 314.913 242.103, 314.365 242.351, 313.514 243.441 C 312.480 244.767, 312 247.677, 312 252.622 C 312 259.368, 312.153 259.883, 314.250 260.180 C 315.973 260.425, 316.491 261.145, 316.461 263.250 C 316.422 265.938, 316.552 266, 322.211 266 C 327.977 266, 328 265.988, 328 263 C 328 260.467, 328.389 260, 330.500 260 C 332.584 260, 333 259.524, 333 257.139 C 333 254.626, 332.696 254.336, 330.500 254.755 C 328.649 255.109, 328 255.865, 328 257.666 C 328 259.946, 327.689 260.085, 323.050 259.873 C 320.328 259.749, 318.329 259.277, 318.609 258.824 C 318.889 258.371, 318.641 258, 318.059 258 C 316.921 258, 316.640 250.947, 317.630 247.250 C 317.962 246.012, 318.657 245, 319.176 245 C 319.694 245, 319.863 245.412, 319.552 245.916 C 319.241 246.419, 320.273 246.346, 321.846 245.752 C 325.431 244.399, 328 245.324, 328 247.969 C 328 249.469, 328.654 250, 330.500 250 C 332.876 250, 333.207 249.360, 332.954 245.250 C 332.929 244.838, 331.804 244.645, 330.454 244.822 C 328.401 245.091, 328 244.722, 328 242.572 C 328 240.121, 327.741 240, 322.500 240 C 319.475 240, 316.948 240.338, 316.885 240.750 M 337.804 253.272 C 337.500 266.543, 337.500 266.543, 340 266.522 C 342.300 266.502, 342.540 266.059, 343 261 C 343.500 255.500, 343.500 255.500, 348.750 255.198 C 354 254.895, 354 254.895, 354 260.331 C 354 265.335, 354.199 265.805, 356.500 266.245 C 358.947 266.713, 359.002 266.588, 359.100 260.361 C 359.411 240.579, 359.339 240, 356.555 240 C 354.347 240, 354.080 240.461, 353.805 244.750 C 353.500 249.500, 353.500 249.500, 348.500 249.500 C 343.500 249.500, 343.500 249.500, 343.195 244.750 C 342.922 240.493, 342.642 240, 340.499 240 C 338.113 240, 338.108 240.028, 337.804 253.272 M 368.820 242.250 C 368.614 243.696, 367.696 244.614, 366.250 244.820 C 363.895 245.154, 364.008 244.585, 363.571 258.231 C 363.516 259.959, 364.064 260.466, 366 260.481 C 368.066 260.497, 368.493 260.978, 368.461 263.250 C 368.422 265.938, 368.552 266, 374.211 266 C 379.977 266, 380 265.988, 380 263 C 380 260.394, 380.362 260, 382.750 259.998 C 385.500 259.996, 385.500 259.996, 385.500 252.092 C 385.500 247.745, 385.158 244.400, 384.741 244.659 C 383.182 245.625, 380 243.796, 380 241.933 C 380 240.260, 379.270 240, 374.570 240 C 369.699 240, 369.106 240.232, 368.820 242.250 M 369.607 246.582 C 368.718 248.897, 368.895 257.286, 369.864 258.815 C 370.403 259.665, 372.255 260.018, 375.099 259.815 C 379.500 259.500, 379.500 259.500, 379.796 252.750 C 379.958 249.037, 379.733 245.943, 379.296 245.872 C 375.808 245.313, 373.871 245.400, 373.416 246.135 C 373.122 246.611, 372.346 246.993, 371.691 246.985 C 370.975 246.975, 371.099 246.582, 372 246 C 373.302 245.159, 373.283 245.029, 371.857 245.015 C 370.953 245.007, 369.941 245.712, 369.607 246.582" stroke="none" fill="#522400" fill-rule="evenodd"/><path d="" stroke="none" fill="#975021" fill-rule="evenodd"/><path d="M 312 143.428 C 312 145.650, 311.543 145.920, 307.328 146.195 C 304.759 146.363, 302.508 146.950, 302.327 147.500 C 302.128 148.107, 303.965 148.364, 306.999 148.153 C 309.750 147.963, 312 147.400, 312 146.903 C 312 146.407, 312.627 146, 313.393 146 C 314.159 146, 315.045 145.325, 315.362 144.500 C 315.862 143.197, 321.974 143, 361.969 143 C 402.219 143, 408 143.188, 408 144.500 C 408 145.325, 408.675 146, 409.500 146 C 410.325 146, 411 146.484, 411 147.076 C 411 147.703, 412.578 148.039, 414.778 147.880 C 416.856 147.730, 419.101 147.944, 419.766 148.356 C 420.551 148.841, 420.790 148.615, 420.444 147.714 C 420.126 146.886, 418.275 146.260, 415.866 146.166 C 410.861 145.970, 410.023 145.478, 410.497 143.015 C 410.864 141.112, 409.837 141.070, 361.436 141.019 C 312 140.966, 312 140.966, 312 143.428" stroke="none" fill="#3b1a05" fill-rule="evenodd"/></svg>