<svg xmlns="http://www.w3.org/2000/svg" width="1152" height="1152" viewBox="0 0 1152 1152" version="1.1"><path d="M 288 436.500 L 288 441 283.500 441 L 279 441 279 450 L 279 459 274.500 459 L 270 459 270 468 L 270 477 265.500 477 L 261 477 261 481.500 L 261 486 225 486 L 189 486 189 490.500 L 189 495 175.500 495 L 162 495 162 499.500 L 162 504 157.500 504 L 153 504 153 508.500 L 153 513 148.500 513 L 144 513 144 517.500 L 144 522 139.500 522 L 135 522 135 526.500 L 135 531 130.500 531 L 126 531 126 540 L 126 549 121.500 549 L 117 549 117 558 L 117 567 112.500 567 L 108 567 108 603 L 108 639 112.500 639 L 117 639 117 657 L 117 675 121.500 675 L 126 675 126 688.500 L 126 702 130.500 702 L 135 702 135 711 L 135 720 139.500 720 L 144 720 144 729 L 144 738 148.500 738 L 153 738 153 742.500 L 153 747 157.500 747 L 162 747 162 751.500 L 162 756 166.500 756 L 171 756 171 760.500 L 171 765 175.500 765 L 180 765 180 769.500 L 180 774 184.500 774 L 189 774 189 778.500 L 189 783 198 783 L 207 783 207 787.500 L 207 792 216 792 L 225 792 225 796.500 L 225 801 234 801 L 243 801 243 805.500 L 243 810 256.500 810 L 270 810 270 814.500 L 270 819 283.500 819 L 297 819 297 823.500 L 297 828 310.500 828 L 324 828 324 832.500 L 324 837 315 837 L 306 837 306 841.500 L 306 846 288 846 L 270 846 270 850.500 L 270 855 261 855 L 252 855 252 859.500 L 252 864 238.500 864 L 225 864 225 868.500 L 225 873 220.500 873 L 216 873 216 877.500 L 216 882 211.500 882 L 207 882 207 891 L 207 900 202.500 900 L 198 900 198 909 L 198 918 193.500 918 L 189 918 189 945 L 189 972 193.500 972 L 198 972 198 981 L 198 990 202.500 990 L 207 990 207 994.500 L 207 999 211.500 999 L 216 999 216 1003.500 L 216 1008 220.500 1008 L 225 1008 225 1012.500 L 225 1017 229.500 1017 L 234 1017 234 1021.500 L 234 1026 238.500 1026 L 243 1026 243 1030.500 L 243 1035 247.500 1035 L 252 1035 252 1039.500 L 252 1044 256.500 1044 L 261 1044 261 1048.500 L 261 1053 270 1053 L 279 1053 279 1057.500 L 279 1062 288 1062 L 297 1062 297 1066.500 L 297 1071 306 1071 L 315 1071 315 1075.500 L 315 1080 328.500 1080 L 342 1080 342 1084.500 L 342 1089 351 1089 L 360 1089 360 1093.500 L 360 1098 373.500 1098 L 387 1098 387 1102.500 L 387 1107 409.500 1107 L 432 1107 432 1111.500 L 432 1116 459 1116 L 486 1116 486 1120.500 L 486 1125 585 1125 L 684 1125 684 1120.500 L 684 1116 706.500 1116 L 729 1116 729 1111.500 L 729 1107 751.500 1107 L 774 1107 774 1102.500 L 774 1098 792 1098 L 810 1098 810 1093.500 L 810 1089 819 1089 L 828 1089 828 1084.500 L 828 1080 841.500 1080 L 855 1080 855 1075.500 L 855 1071 864 1071 L 873 1071 873 1066.500 L 873 1062 882 1062 L 891 1062 891 1057.500 L 891 1053 900 1053 L 909 1053 909 1048.500 L 909 1044 913.500 1044 L 918 1044 918 1039.500 L 918 1035 922.500 1035 L 927 1035 927 1030.500 L 927 1026 931.500 1026 L 936 1026 936 1021.500 L 936 1017 940.500 1017 L 945 1017 945 1012.500 L 945 1008 949.500 1008 L 954 1008 954 1003.500 L 954 999 958.500 999 L 963 999 963 994.500 L 963 990 967.500 990 L 972 990 972 981 L 972 972 976.500 972 L 981 972 981 945 L 981 918 976.500 918 L 972 918 972 909 L 972 900 967.500 900 L 963 900 963 891 L 963 882 958.500 882 L 954 882 954 877.500 L 954 873 949.500 873 L 945 873 945 868.500 L 945 864 931.500 864 L 918 864 918 859.500 L 918 855 909 855 L 900 855 900 850.500 L 900 846 882 846 L 864 846 864 841.500 L 864 837 855 837 L 846 837 846 832.500 L 846 828 850.500 828 L 855 828 855 819 L 855 810 859.500 810 L 864 810 864 792 L 864 774 868.500 774 L 873 774 873 756 L 873 738 877.500 738 L 882 738 882 720 L 882 702 886.500 702 L 891 702 891 675 L 891 648 895.500 648 L 900 648 900 616.500 L 900 585 904.500 585 L 909 585 909 531 L 909 477 904.500 477 L 900 477 900 468 L 900 459 895.500 459 L 891 459 891 450 L 891 441 886.500 441 L 882 441 882 436.500 L 882 432 877.500 432 L 873 432 873 436.500 L 873 441 877.500 441 L 882 441 882 450 L 882 459 886.500 459 L 891 459 891 468 L 891 477 895.500 477 L 900 477 900 504 L 900 531 895.500 531 L 891 531 891 535.500 L 891 540 886.500 540 L 882 540 882 549 L 882 558 877.500 558 L 873 558 873 562.500 L 873 567 868.500 567 L 864 567 864 571.500 L 864 576 868.500 576 L 873 576 873 571.500 L 873 567 877.500 567 L 882 567 882 562.500 L 882 558 886.500 558 L 891 558 891 549 L 891 540 895.500 540 L 900 540 900 562.500 L 900 585 895.500 585 L 891 585 891 616.500 L 891 648 886.500 648 L 882 648 882 675 L 882 702 877.500 702 L 873 702 873 720 L 873 738 868.500 738 L 864 738 864 756 L 864 774 859.500 774 L 855 774 855 787.500 L 855 801 850.500 801 L 846 801 846 814.500 L 846 828 841.500 828 L 837 828 837 841.500 L 837 855 832.500 855 L 828 855 828 864 L 828 873 823.500 873 L 819 873 819 882 L 819 891 814.500 891 L 810 891 810 900 L 810 909 805.500 909 L 801 909 801 913.500 L 801 918 796.500 918 L 792 918 792 922.500 L 792 927 787.500 927 L 783 927 783 931.500 L 783 936 778.500 936 L 774 936 774 940.500 L 774 945 769.500 945 L 765 945 765 949.500 L 765 954 760.500 954 L 756 954 756 958.500 L 756 963 751.500 963 L 747 963 747 967.500 L 747 972 742.500 972 L 738 972 738 976.500 L 738 981 724.500 981 L 711 981 711 985.500 L 711 990 702 990 L 693 990 693 994.500 L 693 999 679.500 999 L 666 999 666 1003.500 L 666 1008 585 1008 L 504 1008 504 1003.500 L 504 999 490.500 999 L 477 999 477 994.500 L 477 990 468 990 L 459 990 459 985.500 L 459 981 445.500 981 L 432 981 432 976.500 L 432 972 427.500 972 L 423 972 423 967.500 L 423 963 418.500 963 L 414 963 414 958.500 L 414 954 409.500 954 L 405 954 405 949.500 L 405 945 400.500 945 L 396 945 396 940.500 L 396 936 391.500 936 L 387 936 387 931.500 L 387 927 382.500 927 L 378 927 378 922.500 L 378 918 373.500 918 L 369 918 369 913.500 L 369 909 364.500 909 L 360 909 360 900 L 360 891 355.500 891 L 351 891 351 882 L 351 873 346.500 873 L 342 873 342 864 L 342 855 337.500 855 L 333 855 333 841.500 L 333 828 328.500 828 L 324 828 324 814.500 L 324 801 319.500 801 L 315 801 315 787.500 L 315 774 310.500 774 L 306 774 306 756 L 306 738 301.500 738 L 297 738 297 720 L 297 702 292.500 702 L 288 702 288 670.500 L 288 639 283.500 639 L 279 639 279 607.500 L 279 576 274.500 576 L 270 576 270 558 L 270 540 274.500 540 L 279 540 279 549 L 279 558 283.500 558 L 288 558 288 562.500 L 288 567 292.500 567 L 297 567 297 571.500 L 297 576 301.500 576 L 306 576 306 580.500 L 306 585 315 585 L 324 585 324 589.500 L 324 594 328.500 594 L 333 594 333 598.500 L 333 603 342 603 L 351 603 351 607.500 L 351 612 360 612 L 369 612 369 616.500 L 369 621 382.500 621 L 396 621 396 625.500 L 396 630 405 630 L 414 630 414 634.500 L 414 639 432 639 L 450 639 450 634.500 L 450 630 432 630 L 414 630 414 625.500 L 414 621 405 621 L 396 621 396 616.500 L 396 612 382.500 612 L 369 612 369 607.500 L 369 603 360 603 L 351 603 351 598.500 L 351 594 342 594 L 333 594 333 589.500 L 333 585 328.500 585 L 324 585 324 580.500 L 324 576 315 576 L 306 576 306 571.500 L 306 567 301.500 567 L 297 567 297 562.500 L 297 558 292.500 558 L 288 558 288 549 L 288 540 283.500 540 L 279 540 279 531 L 279 522 274.500 522 L 270 522 270 499.500 L 270 477 274.500 477 L 279 477 279 468 L 279 459 283.500 459 L 288 459 288 450 L 288 441 292.500 441 L 297 441 297 436.500 L 297 432 292.500 432 L 288 432 288 436.500 M 189 499.500 L 189 504 180 504 L 171 504 171 508.500 L 171 513 162 513 L 153 513 153 517.500 L 153 522 148.500 522 L 144 522 144 526.500 L 144 531 139.500 531 L 135 531 135 540 L 135 549 130.500 549 L 126 549 126 558 L 126 567 121.500 567 L 117 567 117 603 L 117 639 121.500 639 L 126 639 126 657 L 126 675 130.500 675 L 135 675 135 688.500 L 135 702 139.500 702 L 144 702 144 711 L 144 720 148.500 720 L 153 720 153 729 L 153 738 157.500 738 L 162 738 162 742.500 L 162 747 166.500 747 L 171 747 171 751.500 L 171 756 175.500 756 L 180 756 180 760.500 L 180 765 184.500 765 L 189 765 189 769.500 L 189 774 198 774 L 207 774 207 778.500 L 207 783 216 783 L 225 783 225 787.500 L 225 792 234 792 L 243 792 243 796.500 L 243 801 256.500 801 L 270 801 270 805.500 L 270 810 283.500 810 L 297 810 297 814.500 L 297 819 306 819 L 315 819 315 810 L 315 801 310.500 801 L 306 801 306 787.500 L 306 774 292.500 774 L 279 774 279 769.500 L 279 765 288 765 L 297 765 297 756 L 297 747 292.500 747 L 288 747 288 724.500 L 288 702 283.500 702 L 279 702 279 675 L 279 648 274.500 648 L 270 648 270 616.500 L 270 585 265.500 585 L 261 585 261 571.500 L 261 558 256.500 558 L 252 558 252 553.500 L 252 549 256.500 549 L 261 549 261 522 L 261 495 225 495 L 189 495 189 499.500 M 207 544.500 L 207 549 198 549 L 189 549 189 553.500 L 189 558 184.500 558 L 180 558 180 562.500 L 180 567 175.500 567 L 171 567 171 571.500 L 171 576 166.500 576 L 162 576 162 616.500 L 162 657 166.500 657 L 171 657 171 670.500 L 171 684 175.500 684 L 180 684 180 693 L 180 702 184.500 702 L 189 702 189 706.500 L 189 711 193.500 711 L 198 711 198 715.500 L 198 720 202.500 720 L 207 720 207 724.500 L 207 729 211.500 729 L 216 729 216 733.500 L 216 738 220.500 738 L 225 738 225 742.500 L 225 747 229.500 747 L 234 747 234 751.500 L 234 756 243 756 L 252 756 252 760.500 L 252 765 265.500 765 L 279 765 279 760.500 L 279 756 265.500 756 L 252 756 252 751.500 L 252 747 243 747 L 234 747 234 742.500 L 234 738 229.500 738 L 225 738 225 733.500 L 225 729 220.500 729 L 216 729 216 724.500 L 216 720 211.500 720 L 207 720 207 715.500 L 207 711 202.500 711 L 198 711 198 706.500 L 198 702 193.500 702 L 189 702 189 693 L 189 684 184.500 684 L 180 684 180 666 L 180 648 175.500 648 L 171 648 171 612 L 171 576 175.500 576 L 180 576 180 571.500 L 180 567 184.500 567 L 189 567 189 562.500 L 189 558 198 558 L 207 558 207 553.500 L 207 549 229.500 549 L 252 549 252 544.500 L 252 540 229.500 540 L 207 540 207 544.500 M 306 850.500 L 306 855 288 855 L 270 855 270 859.500 L 270 864 261 864 L 252 864 252 868.500 L 252 873 238.500 873 L 225 873 225 877.500 L 225 882 220.500 882 L 216 882 216 891 L 216 900 211.500 900 L 207 900 207 909 L 207 918 202.500 918 L 198 918 198 945 L 198 972 202.500 972 L 207 972 207 981 L 207 990 211.500 990 L 216 990 216 994.500 L 216 999 220.500 999 L 225 999 225 1003.500 L 225 1008 229.500 1008 L 234 1008 234 1012.500 L 234 1017 238.500 1017 L 243 1017 243 1021.500 L 243 1026 247.500 1026 L 252 1026 252 1030.500 L 252 1035 256.500 1035 L 261 1035 261 1039.500 L 261 1044 270 1044 L 279 1044 279 1048.500 L 279 1053 288 1053 L 297 1053 297 1057.500 L 297 1062 306 1062 L 315 1062 315 1066.500 L 315 1071 328.500 1071 L 342 1071 342 1075.500 L 342 1080 351 1080 L 360 1080 360 1084.500 L 360 1089 373.500 1089 L 387 1089 387 1093.500 L 387 1098 409.500 1098 L 432 1098 432 1102.500 L 432 1107 459 1107 L 486 1107 486 1111.500 L 486 1116 585 1116 L 684 1116 684 1111.500 L 684 1107 706.500 1107 L 729 1107 729 1102.500 L 729 1098 751.500 1098 L 774 1098 774 1093.500 L 774 1089 792 1089 L 810 1089 810 1084.500 L 810 1080 819 1080 L 828 1080 828 1075.500 L 828 1071 841.500 1071 L 855 1071 855 1066.500 L 855 1062 864 1062 L 873 1062 873 1057.500 L 873 1053 882 1053 L 891 1053 891 1048.500 L 891 1044 900 1044 L 909 1044 909 1039.500 L 909 1035 913.500 1035 L 918 1035 918 1030.500 L 918 1026 922.500 1026 L 927 1026 927 1021.500 L 927 1017 931.500 1017 L 936 1017 936 1012.500 L 936 1008 940.500 1008 L 945 1008 945 1003.500 L 945 999 949.500 999 L 954 999 954 994.500 L 954 990 958.500 990 L 963 990 963 981 L 963 972 967.500 972 L 972 972 972 945 L 972 918 967.500 918 L 963 918 963 909 L 963 900 958.500 900 L 954 900 954 891 L 954 882 949.500 882 L 945 882 945 877.500 L 945 873 931.500 873 L 918 873 918 868.500 L 918 864 909 864 L 900 864 900 859.500 L 900 855 882 855 L 864 855 864 850.500 L 864 846 855 846 L 846 846 846 850.500 L 846 855 841.500 855 L 837 855 837 864 L 837 873 832.500 873 L 828 873 828 882 L 828 891 823.500 891 L 819 891 819 900 L 819 909 814.500 909 L 810 909 810 913.500 L 810 918 805.500 918 L 801 918 801 922.500 L 801 927 796.500 927 L 792 927 792 931.500 L 792 936 787.500 936 L 783 936 783 940.500 L 783 945 778.500 945 L 774 945 774 949.500 L 774 954 769.500 954 L 765 954 765 958.500 L 765 963 760.500 963 L 756 963 756 967.500 L 756 972 751.500 972 L 747 972 747 976.500 L 747 981 742.500 981 L 738 981 738 985.500 L 738 990 724.500 990 L 711 990 711 994.500 L 711 999 702 999 L 693 999 693 1003.500 L 693 1008 679.500 1008 L 666 1008 666 1012.500 L 666 1017 585 1017 L 504 1017 504 1012.500 L 504 1008 490.500 1008 L 477 1008 477 1003.500 L 477 999 468 999 L 459 999 459 994.500 L 459 990 445.500 990 L 432 990 432 985.500 L 432 981 427.500 981 L 423 981 423 976.500 L 423 972 418.500 972 L 414 972 414 967.500 L 414 963 409.500 963 L 405 963 405 958.500 L 405 954 400.500 954 L 396 954 396 949.500 L 396 945 391.500 945 L 387 945 387 940.500 L 387 936 382.500 936 L 378 936 378 931.500 L 378 927 373.500 927 L 369 927 369 922.500 L 369 918 364.500 918 L 360 918 360 913.500 L 360 909 355.500 909 L 351 909 351 900 L 351 891 346.500 891 L 342 891 342 882 L 342 873 337.500 873 L 333 873 333 864 L 333 855 328.500 855 L 324 855 324 850.500 L 324 846 315 846 L 306 846 306 850.500 M 306 963 L 306 972 310.500 972 L 315 972 315 976.500 L 315 981 319.500 981 L 324 981 324 985.500 L 324 990 328.500 990 L 333 990 333 994.500 L 333 999 337.500 999 L 342 999 342 1003.500 L 342 1008 351 1008 L 360 1008 360 1012.500 L 360 1017 369 1017 L 378 1017 378 1021.500 L 378 1026 391.500 1026 L 405 1026 405 1030.500 L 405 1035 414 1035 L 423 1035 423 1039.500 L 423 1044 450 1044 L 477 1044 477 1048.500 L 477 1053 580.500 1053 L 684 1053 684 1048.500 L 684 1044 711 1044 L 738 1044 738 1039.500 L 738 1035 751.500 1035 L 765 1035 765 1030.500 L 765 1026 778.500 1026 L 792 1026 792 1021.500 L 792 1017 801 1017 L 810 1017 810 1012.500 L 810 1008 819 1008 L 828 1008 828 1003.500 L 828 999 832.500 999 L 837 999 837 994.500 L 837 990 841.500 990 L 846 990 846 985.500 L 846 981 850.500 981 L 855 981 855 976.500 L 855 972 859.500 972 L 864 972 864 963 L 864 954 859.500 954 L 855 954 855 963 L 855 972 850.500 972 L 846 972 846 976.500 L 846 981 841.500 981 L 837 981 837 985.500 L 837 990 832.500 990 L 828 990 828 994.500 L 828 999 819 999 L 810 999 810 1003.500 L 810 1008 801 1008 L 792 1008 792 1012.500 L 792 1017 778.500 1017 L 765 1017 765 1021.500 L 765 1026 751.500 1026 L 738 1026 738 1030.500 L 738 1035 711 1035 L 684 1035 684 1039.500 L 684 1044 580.500 1044 L 477 1044 477 1039.500 L 477 1035 454.500 1035 L 432 1035 432 1030.500 L 432 1026 418.500 1026 L 405 1026 405 1021.500 L 405 1017 391.500 1017 L 378 1017 378 1012.500 L 378 1008 369 1008 L 360 1008 360 1003.500 L 360 999 351 999 L 342 999 342 994.500 L 342 990 337.500 990 L 333 990 333 985.500 L 333 981 328.500 981 L 324 981 324 976.500 L 324 972 319.500 972 L 315 972 315 963 L 315 954 310.500 954 L 306 954 306 963" stroke="none" fill="#242b22" fill-rule="evenodd"/><path d="M 198 535.500 L 198 540 193.500 540 L 189 540 189 544.500 L 189 549 180 549 L 171 549 171 553.500 L 171 558 166.500 558 L 162 558 162 562.500 L 162 567 157.500 567 L 153 567 153 571.500 L 153 576 148.500 576 L 144 576 144 589.500 L 144 603 139.500 603 L 135 603 135 621 L 135 639 130.500 639 L 126 639 126 657 L 126 675 130.500 675 L 135 675 135 688.500 L 135 702 139.500 702 L 144 702 144 711 L 144 720 148.500 720 L 153 720 153 729 L 153 738 157.500 738 L 162 738 162 742.500 L 162 747 166.500 747 L 171 747 171 751.500 L 171 756 175.500 756 L 180 756 180 760.500 L 180 765 184.500 765 L 189 765 189 769.500 L 189 774 198 774 L 207 774 207 778.500 L 207 783 211.500 783 L 216 783 216 778.500 L 216 774 211.500 774 L 207 774 207 769.500 L 207 765 202.500 765 L 198 765 198 760.500 L 198 756 193.500 756 L 189 756 189 747 L 189 738 184.500 738 L 180 738 180 729 L 180 720 175.500 720 L 171 720 171 711 L 171 702 166.500 702 L 162 702 162 693 L 162 684 157.500 684 L 153 684 153 652.500 L 153 621 157.500 621 L 162 621 162 598.500 L 162 576 166.500 576 L 171 576 171 571.500 L 171 567 175.500 567 L 180 567 180 562.500 L 180 558 184.500 558 L 189 558 189 553.500 L 189 549 198 549 L 207 549 207 544.500 L 207 540 229.500 540 L 252 540 252 544.500 L 252 549 256.500 549 L 261 549 261 540 L 261 531 229.500 531 L 198 531 198 535.500 M 891 558 L 891 576 886.500 576 L 882 576 882 589.500 L 882 603 877.500 603 L 873 603 873 607.500 L 873 612 868.500 612 L 864 612 864 616.500 L 864 621 859.500 621 L 855 621 855 630 L 855 639 850.500 639 L 846 639 846 666 L 846 693 841.500 693 L 837 693 837 720 L 837 747 832.500 747 L 828 747 828 760.500 L 828 774 823.500 774 L 819 774 819 801 L 819 828 814.500 828 L 810 828 810 855 L 810 882 814.500 882 L 819 882 819 877.500 L 819 873 823.500 873 L 828 873 828 877.500 L 828 882 832.500 882 L 837 882 837 886.500 L 837 891 841.500 891 L 846 891 846 895.500 L 846 900 850.500 900 L 855 900 855 904.500 L 855 909 859.500 909 L 864 909 864 940.500 L 864 972 859.500 972 L 855 972 855 976.500 L 855 981 850.500 981 L 846 981 846 985.500 L 846 990 841.500 990 L 837 990 837 994.500 L 837 999 832.500 999 L 828 999 828 1003.500 L 828 1008 819 1008 L 810 1008 810 1012.500 L 810 1017 801 1017 L 792 1017 792 1021.500 L 792 1026 778.500 1026 L 765 1026 765 1030.500 L 765 1035 751.500 1035 L 738 1035 738 1039.500 L 738 1044 711 1044 L 684 1044 684 1048.500 L 684 1053 580.500 1053 L 477 1053 477 1048.500 L 477 1044 450 1044 L 423 1044 423 1039.500 L 423 1035 414 1035 L 405 1035 405 1030.500 L 405 1026 391.500 1026 L 378 1026 378 1021.500 L 378 1017 369 1017 L 360 1017 360 1012.500 L 360 1008 351 1008 L 342 1008 342 1003.500 L 342 999 337.500 999 L 333 999 333 994.500 L 333 990 328.500 990 L 324 990 324 985.500 L 324 981 319.500 981 L 315 981 315 976.500 L 315 972 310.500 972 L 306 972 306 963 L 306 954 301.500 954 L 297 954 297 931.500 L 297 909 301.500 909 L 306 909 306 904.500 L 306 900 310.500 900 L 315 900 315 895.500 L 315 891 319.500 891 L 324 891 324 886.500 L 324 882 333 882 L 342 882 342 877.500 L 342 873 337.500 873 L 333 873 333 864 L 333 855 328.500 855 L 324 855 324 850.500 L 324 846 315 846 L 306 846 306 850.500 L 306 855 288 855 L 270 855 270 859.500 L 270 864 261 864 L 252 864 252 868.500 L 252 873 243 873 L 234 873 234 882 L 234 891 229.500 891 L 225 891 225 918 L 225 945 229.500 945 L 234 945 234 958.500 L 234 972 238.500 972 L 243 972 243 976.500 L 243 981 247.500 981 L 252 981 252 985.500 L 252 990 256.500 990 L 261 990 261 994.500 L 261 999 265.500 999 L 270 999 270 1003.500 L 270 1008 274.500 1008 L 279 1008 279 1012.500 L 279 1017 283.500 1017 L 288 1017 288 1021.500 L 288 1026 292.500 1026 L 297 1026 297 1030.500 L 297 1035 306 1035 L 315 1035 315 1039.500 L 315 1044 324 1044 L 333 1044 333 1048.500 L 333 1053 342 1053 L 351 1053 351 1057.500 L 351 1062 369 1062 L 387 1062 387 1066.500 L 387 1071 409.500 1071 L 432 1071 432 1075.500 L 432 1080 580.500 1080 L 729 1080 729 1075.500 L 729 1071 738 1071 L 747 1071 747 1066.500 L 747 1062 774 1062 L 801 1062 801 1057.500 L 801 1053 823.500 1053 L 846 1053 846 1048.500 L 846 1044 850.500 1044 L 855 1044 855 1039.500 L 855 1035 859.500 1035 L 864 1035 864 1030.500 L 864 1026 873 1026 L 882 1026 882 1021.500 L 882 1017 886.500 1017 L 891 1017 891 1008 L 891 999 895.500 999 L 900 999 900 994.500 L 900 990 909 990 L 918 990 918 981 L 918 972 922.500 972 L 927 972 927 967.500 L 927 963 931.500 963 L 936 963 936 918 L 936 873 927 873 L 918 873 918 868.500 L 918 864 909 864 L 900 864 900 859.500 L 900 855 882 855 L 864 855 864 850.500 L 864 846 855 846 L 846 846 846 850.500 L 846 855 841.500 855 L 837 855 837 841.500 L 837 828 841.500 828 L 846 828 846 814.500 L 846 801 850.500 801 L 855 801 855 787.500 L 855 774 859.500 774 L 864 774 864 756 L 864 738 868.500 738 L 873 738 873 720 L 873 702 877.500 702 L 882 702 882 675 L 882 648 886.500 648 L 891 648 891 616.500 L 891 585 895.500 585 L 900 585 900 562.500 L 900 540 895.500 540 L 891 540 891 558 M 270 567 L 270 576 274.500 576 L 279 576 279 607.500 L 279 639 283.500 639 L 288 639 288 670.500 L 288 702 292.500 702 L 297 702 297 706.500 L 297 711 301.500 711 L 306 711 306 724.500 L 306 738 310.500 738 L 315 738 315 751.500 L 315 765 319.500 765 L 324 765 324 778.500 L 324 792 328.500 792 L 333 792 333 796.500 L 333 801 337.500 801 L 342 801 342 810 L 342 819 346.500 819 L 351 819 351 828 L 351 837 355.500 837 L 360 837 360 841.500 L 360 846 364.500 846 L 369 846 369 850.500 L 369 855 373.500 855 L 378 855 378 864 L 378 873 382.500 873 L 387 873 387 877.500 L 387 882 391.500 882 L 396 882 396 886.500 L 396 891 400.500 891 L 405 891 405 895.500 L 405 900 414 900 L 423 900 423 909 L 423 918 432 918 L 441 918 441 922.500 L 441 927 454.500 927 L 468 927 468 931.500 L 468 936 481.500 936 L 495 936 495 940.500 L 495 945 513 945 L 531 945 531 949.500 L 531 954 589.500 954 L 648 954 648 949.500 L 648 945 666 945 L 684 945 684 949.500 L 684 954 679.500 954 L 675 954 675 963 L 675 972 670.500 972 L 666 972 666 976.500 L 666 981 661.500 981 L 657 981 657 985.500 L 657 990 652.500 990 L 648 990 648 994.500 L 648 999 643.500 999 L 639 999 639 1003.500 L 639 1008 652.500 1008 L 666 1008 666 1003.500 L 666 999 670.500 999 L 675 999 675 994.500 L 675 990 679.500 990 L 684 990 684 985.500 L 684 981 688.500 981 L 693 981 693 976.500 L 693 972 702 972 L 711 972 711 940.500 L 711 909 715.500 909 L 720 909 720 891 L 720 873 724.500 873 L 729 873 729 814.500 L 729 756 733.500 756 L 738 756 738 715.500 L 738 675 733.500 675 L 729 675 729 679.500 L 729 684 711 684 L 693 684 693 688.500 L 693 693 594 693 L 495 693 495 688.500 L 495 684 472.500 684 L 450 684 450 679.500 L 450 675 432 675 L 414 675 414 670.500 L 414 666 405 666 L 396 666 396 661.500 L 396 657 382.500 657 L 369 657 369 652.500 L 369 648 360 648 L 351 648 351 643.500 L 351 639 342 639 L 333 639 333 634.500 L 333 630 328.500 630 L 324 630 324 625.500 L 324 621 319.500 621 L 315 621 315 616.500 L 315 612 310.500 612 L 306 612 306 607.500 L 306 603 301.500 603 L 297 603 297 598.500 L 297 594 292.500 594 L 288 594 288 585 L 288 576 283.500 576 L 279 576 279 567 L 279 558 274.500 558 L 270 558 270 567 M 225 787.500 L 225 792 229.500 792 L 234 792 234 787.500 L 234 783 229.500 783 L 225 783 225 787.500 M 243 796.500 L 243 801 247.500 801 L 252 801 252 796.500 L 252 792 247.500 792 L 243 792 243 796.500 M 828 864 L 828 873 832.500 873 L 837 873 837 864 L 837 855 832.500 855 L 828 855 828 864" stroke="none" fill="#c7d9c2" fill-rule="evenodd"/><path d="M 198 508.500 L 198 513 189 513 L 180 513 180 517.500 L 180 522 166.500 522 L 153 522 153 526.500 L 153 531 148.500 531 L 144 531 144 535.500 L 144 540 139.500 540 L 135 540 135 544.500 L 135 549 130.500 549 L 126 549 126 558 L 126 567 121.500 567 L 117 567 117 603 L 117 639 126 639 L 135 639 135 621 L 135 603 139.500 603 L 144 603 144 589.500 L 144 576 148.500 576 L 153 576 153 571.500 L 153 567 157.500 567 L 162 567 162 562.500 L 162 558 166.500 558 L 171 558 171 553.500 L 171 549 180 549 L 189 549 189 544.500 L 189 540 193.500 540 L 198 540 198 535.500 L 198 531 229.500 531 L 261 531 261 517.500 L 261 504 229.500 504 L 198 504 198 508.500 M 270 549 L 270 558 274.500 558 L 279 558 279 567 L 279 576 283.500 576 L 288 576 288 585 L 288 594 292.500 594 L 297 594 297 598.500 L 297 603 301.500 603 L 306 603 306 607.500 L 306 612 310.500 612 L 315 612 315 616.500 L 315 621 319.500 621 L 324 621 324 625.500 L 324 630 328.500 630 L 333 630 333 634.500 L 333 639 342 639 L 351 639 351 643.500 L 351 648 360 648 L 369 648 369 652.500 L 369 657 382.500 657 L 396 657 396 661.500 L 396 666 405 666 L 414 666 414 670.500 L 414 675 432 675 L 450 675 450 679.500 L 450 684 472.500 684 L 495 684 495 688.500 L 495 693 594 693 L 693 693 693 688.500 L 693 684 711 684 L 729 684 729 679.500 L 729 675 733.500 675 L 738 675 738 688.500 L 738 702 742.500 702 L 747 702 747 679.500 L 747 657 729 657 L 711 657 711 661.500 L 711 666 688.500 666 L 666 666 666 670.500 L 666 675 585 675 L 504 675 504 670.500 L 504 666 477 666 L 450 666 450 661.500 L 450 657 445.500 657 L 441 657 441 652.500 L 441 648 423 648 L 405 648 405 643.500 L 405 639 396 639 L 387 639 387 634.500 L 387 630 378 630 L 369 630 369 625.500 L 369 621 360 621 L 351 621 351 612 L 351 603 342 603 L 333 603 333 598.500 L 333 594 328.500 594 L 324 594 324 589.500 L 324 585 315 585 L 306 585 306 580.500 L 306 576 301.500 576 L 297 576 297 571.500 L 297 567 292.500 567 L 288 567 288 562.500 L 288 558 283.500 558 L 279 558 279 549 L 279 540 274.500 540 L 270 540 270 549 M 864 589.500 L 864 594 859.500 594 L 855 594 855 598.500 L 855 603 846 603 L 837 603 837 607.500 L 837 612 832.500 612 L 828 612 828 621 L 828 630 819 630 L 810 630 810 639 L 810 648 805.500 648 L 801 648 801 688.500 L 801 729 796.500 729 L 792 729 792 810 L 792 891 787.500 891 L 783 891 783 895.500 L 783 900 778.500 900 L 774 900 774 904.500 L 774 909 769.500 909 L 765 909 765 913.500 L 765 918 760.500 918 L 756 918 756 927 L 756 936 747 936 L 738 936 738 940.500 L 738 945 733.500 945 L 729 945 729 909 L 729 873 724.500 873 L 720 873 720 891 L 720 909 715.500 909 L 711 909 711 940.500 L 711 972 702 972 L 693 972 693 976.500 L 693 981 688.500 981 L 684 981 684 985.500 L 684 990 679.500 990 L 675 990 675 994.500 L 675 999 684 999 L 693 999 693 994.500 L 693 990 702 990 L 711 990 711 985.500 L 711 981 715.500 981 L 720 981 720 976.500 L 720 972 724.500 972 L 729 972 729 967.500 L 729 963 733.500 963 L 738 963 738 958.500 L 738 954 742.500 954 L 747 954 747 949.500 L 747 945 751.500 945 L 756 945 756 940.500 L 756 936 760.500 936 L 765 936 765 931.500 L 765 927 769.500 927 L 774 927 774 922.500 L 774 918 778.500 918 L 783 918 783 913.500 L 783 909 787.500 909 L 792 909 792 904.500 L 792 900 796.500 900 L 801 900 801 895.500 L 801 891 805.500 891 L 810 891 810 859.500 L 810 828 814.500 828 L 819 828 819 801 L 819 774 823.500 774 L 828 774 828 760.500 L 828 747 832.500 747 L 837 747 837 720 L 837 693 841.500 693 L 846 693 846 666 L 846 639 850.500 639 L 855 639 855 630 L 855 621 859.500 621 L 864 621 864 616.500 L 864 612 868.500 612 L 873 612 873 607.500 L 873 603 877.500 603 L 882 603 882 594 L 882 585 873 585 L 864 585 864 589.500 M 729 801 L 729 846 733.500 846 L 738 846 738 801 L 738 756 733.500 756 L 729 756 729 801 M 225 877.500 L 225 882 220.500 882 L 216 882 216 895.500 L 216 909 211.500 909 L 207 909 207 940.500 L 207 972 211.500 972 L 216 972 216 981 L 216 990 220.500 990 L 225 990 225 994.500 L 225 999 229.500 999 L 234 999 234 1003.500 L 234 1008 238.500 1008 L 243 1008 243 1012.500 L 243 1017 247.500 1017 L 252 1017 252 1021.500 L 252 1026 261 1026 L 270 1026 270 1030.500 L 270 1035 279 1035 L 288 1035 288 1039.500 L 288 1044 292.500 1044 L 297 1044 297 1048.500 L 297 1053 310.500 1053 L 324 1053 324 1057.500 L 324 1062 333 1062 L 342 1062 342 1066.500 L 342 1071 351 1071 L 360 1071 360 1075.500 L 360 1080 373.500 1080 L 387 1080 387 1084.500 L 387 1089 436.500 1089 L 486 1089 486 1093.500 L 486 1098 580.500 1098 L 675 1098 675 1093.500 L 675 1089 720 1089 L 765 1089 765 1084.500 L 765 1080 787.500 1080 L 810 1080 810 1075.500 L 810 1071 819 1071 L 828 1071 828 1066.500 L 828 1062 841.500 1062 L 855 1062 855 1057.500 L 855 1053 859.500 1053 L 864 1053 864 1048.500 L 864 1044 877.500 1044 L 891 1044 891 1039.500 L 891 1035 895.500 1035 L 900 1035 900 1030.500 L 900 1026 904.500 1026 L 909 1026 909 1021.500 L 909 1017 913.500 1017 L 918 1017 918 1012.500 L 918 1008 922.500 1008 L 927 1008 927 1003.500 L 927 999 931.500 999 L 936 999 936 990 L 936 981 940.500 981 L 945 981 945 976.500 L 945 972 949.500 972 L 954 972 954 945 L 954 918 949.500 918 L 945 918 945 895.500 L 945 873 940.500 873 L 936 873 936 918 L 936 963 931.500 963 L 927 963 927 967.500 L 927 972 922.500 972 L 918 972 918 981 L 918 990 909 990 L 900 990 900 994.500 L 900 999 895.500 999 L 891 999 891 1008 L 891 1017 886.500 1017 L 882 1017 882 1021.500 L 882 1026 873 1026 L 864 1026 864 1030.500 L 864 1035 859.500 1035 L 855 1035 855 1039.500 L 855 1044 850.500 1044 L 846 1044 846 1048.500 L 846 1053 823.500 1053 L 801 1053 801 1057.500 L 801 1062 774 1062 L 747 1062 747 1066.500 L 747 1071 738 1071 L 729 1071 729 1075.500 L 729 1080 580.500 1080 L 432 1080 432 1075.500 L 432 1071 409.500 1071 L 387 1071 387 1066.500 L 387 1062 369 1062 L 351 1062 351 1057.500 L 351 1053 342 1053 L 333 1053 333 1048.500 L 333 1044 324 1044 L 315 1044 315 1039.500 L 315 1035 306 1035 L 297 1035 297 1030.500 L 297 1026 292.500 1026 L 288 1026 288 1021.500 L 288 1017 283.500 1017 L 279 1017 279 1012.500 L 279 1008 274.500 1008 L 270 1008 270 1003.500 L 270 999 265.500 999 L 261 999 261 994.500 L 261 990 256.500 990 L 252 990 252 985.500 L 252 981 247.500 981 L 243 981 243 976.500 L 243 972 238.500 972 L 234 972 234 958.500 L 234 945 229.500 945 L 225 945 225 918 L 225 891 229.500 891 L 234 891 234 882 L 234 873 229.500 873 L 225 873 225 877.500" stroke="none" fill="#eff4ed" fill-rule="evenodd"/><path d="M 882 562.500 L 882 567 877.500 567 L 873 567 873 571.500 L 873 576 868.500 576 L 864 576 864 580.500 L 864 585 855 585 L 846 585 846 589.500 L 846 594 841.500 594 L 837 594 837 598.500 L 837 603 832.500 603 L 828 603 828 607.500 L 828 612 823.500 612 L 819 612 819 616.500 L 819 621 814.500 621 L 810 621 810 625.500 L 810 630 805.500 630 L 801 630 801 634.500 L 801 639 792 639 L 783 639 783 675 L 783 711 778.500 711 L 774 711 774 747 L 774 783 769.500 783 L 765 783 765 819 L 765 855 760.500 855 L 756 855 756 868.500 L 756 882 751.500 882 L 747 882 747 895.500 L 747 909 742.500 909 L 738 909 738 891 L 738 873 742.500 873 L 747 873 747 832.500 L 747 792 751.500 792 L 756 792 756 747 L 756 702 760.500 702 L 765 702 765 675 L 765 648 756 648 L 747 648 747 675 L 747 702 742.500 702 L 738 702 738 774 L 738 846 733.500 846 L 729 846 729 895.500 L 729 945 733.500 945 L 738 945 738 940.500 L 738 936 747 936 L 756 936 756 927 L 756 918 760.500 918 L 765 918 765 913.500 L 765 909 769.500 909 L 774 909 774 904.500 L 774 900 778.500 900 L 783 900 783 895.500 L 783 891 787.500 891 L 792 891 792 810 L 792 729 796.500 729 L 801 729 801 688.500 L 801 648 805.500 648 L 810 648 810 639 L 810 630 819 630 L 828 630 828 621 L 828 612 832.500 612 L 837 612 837 607.500 L 837 603 846 603 L 855 603 855 598.500 L 855 594 859.500 594 L 864 594 864 589.500 L 864 585 873 585 L 882 585 882 580.500 L 882 576 886.500 576 L 891 576 891 567 L 891 558 886.500 558 L 882 558 882 562.500" stroke="none" fill="#f7f7f7" fill-rule="evenodd"/><path d="M 468 346.500 L 468 351 472.500 351 L 477 351 477 346.500 L 477 342 472.500 342 L 468 342 468 346.500 M 513 355.500 L 513 360 481.500 360 L 450 360 450 364.500 L 450 369 432 369 L 414 369 414 373.500 L 414 378 405 378 L 396 378 396 382.500 L 396 387 382.500 387 L 369 387 369 391.500 L 369 396 360 396 L 351 396 351 400.500 L 351 405 342 405 L 333 405 333 409.500 L 333 414 328.500 414 L 324 414 324 418.500 L 324 423 315 423 L 306 423 306 427.500 L 306 432 301.500 432 L 297 432 297 441 L 297 450 292.500 450 L 288 450 288 454.500 L 288 459 283.500 459 L 279 459 279 468 L 279 477 274.500 477 L 270 477 270 499.500 L 270 522 274.500 522 L 279 522 279 531 L 279 540 283.500 540 L 288 540 288 549 L 288 558 292.500 558 L 297 558 297 562.500 L 297 567 301.500 567 L 306 567 306 571.500 L 306 576 315 576 L 324 576 324 580.500 L 324 585 328.500 585 L 333 585 333 589.500 L 333 594 342 594 L 351 594 351 598.500 L 351 603 360 603 L 369 603 369 607.500 L 369 612 360 612 L 351 612 351 616.500 L 351 621 360 621 L 369 621 369 625.500 L 369 630 378 630 L 387 630 387 634.500 L 387 639 396 639 L 405 639 405 643.500 L 405 648 423 648 L 441 648 441 652.500 L 441 657 445.500 657 L 450 657 450 661.500 L 450 666 477 666 L 504 666 504 670.500 L 504 675 585 675 L 666 675 666 670.500 L 666 666 688.500 666 L 711 666 711 661.500 L 711 657 729 657 L 747 657 747 652.500 L 747 648 751.500 648 L 756 648 756 643.500 L 756 639 760.500 639 L 765 639 765 670.500 L 765 702 760.500 702 L 756 702 756 747 L 756 792 751.500 792 L 747 792 747 832.500 L 747 873 742.500 873 L 738 873 738 891 L 738 909 742.500 909 L 747 909 747 895.500 L 747 882 751.500 882 L 756 882 756 868.500 L 756 855 760.500 855 L 765 855 765 819 L 765 783 769.500 783 L 774 783 774 747 L 774 711 778.500 711 L 783 711 783 675 L 783 639 792 639 L 801 639 801 634.500 L 801 630 805.500 630 L 810 630 810 625.500 L 810 621 814.500 621 L 819 621 819 616.500 L 819 612 823.500 612 L 828 612 828 607.500 L 828 603 823.500 603 L 819 603 819 598.500 L 819 594 828 594 L 837 594 837 589.500 L 837 585 841.500 585 L 846 585 846 580.500 L 846 576 855 576 L 864 576 864 571.500 L 864 567 868.500 567 L 873 567 873 562.500 L 873 558 877.500 558 L 882 558 882 549 L 882 540 886.500 540 L 891 540 891 531 L 891 522 895.500 522 L 900 522 900 499.500 L 900 477 904.500 477 L 909 477 909 486 L 909 495 913.500 495 L 918 495 918 486 L 918 477 913.500 477 L 909 477 909 468 L 909 459 904.500 459 L 900 459 900 468 L 900 477 895.500 477 L 891 477 891 468 L 891 459 886.500 459 L 882 459 882 450 L 882 441 877.500 441 L 873 441 873 436.500 L 873 432 864 432 L 855 432 855 427.500 L 855 423 846 423 L 837 423 837 418.500 L 837 414 832.500 414 L 828 414 828 409.500 L 828 405 819 405 L 810 405 810 400.500 L 810 396 801 396 L 792 396 792 391.500 L 792 387 778.500 387 L 765 387 765 382.500 L 765 378 751.500 378 L 738 378 738 373.500 L 738 369 720 369 L 702 369 702 364.500 L 702 360 679.500 360 L 657 360 657 355.500 L 657 351 585 351 L 513 351 513 355.500 M 513 373.500 L 513 378 486 378 L 459 378 459 382.500 L 459 387 436.500 387 L 414 387 414 391.500 L 414 396 405 396 L 396 396 396 400.500 L 396 405 387 405 L 378 405 378 409.500 L 378 414 369 414 L 360 414 360 418.500 L 360 423 351 423 L 342 423 342 427.500 L 342 432 337.500 432 L 333 432 333 436.500 L 333 441 324 441 L 315 441 315 445.500 L 315 450 310.500 450 L 306 450 306 459 L 306 468 301.500 468 L 297 468 297 472.500 L 297 477 292.500 477 L 288 477 288 499.500 L 288 522 292.500 522 L 297 522 297 531 L 297 540 301.500 540 L 306 540 306 544.500 L 306 549 310.500 549 L 315 549 315 553.500 L 315 558 324 558 L 333 558 333 562.500 L 333 567 337.500 567 L 342 567 342 571.500 L 342 576 346.500 576 L 351 576 351 580.500 L 351 585 355.500 585 L 360 585 360 589.500 L 360 594 364.500 594 L 369 594 369 589.500 L 369 585 373.500 585 L 378 585 378 589.500 L 378 594 387 594 L 396 594 396 598.500 L 396 603 405 603 L 414 603 414 607.500 L 414 612 436.500 612 L 459 612 459 616.500 L 459 621 486 621 L 513 621 513 625.500 L 513 630 580.500 630 L 648 630 648 625.500 L 648 621 675 621 L 702 621 702 616.500 L 702 612 724.500 612 L 747 612 747 607.500 L 747 603 760.500 603 L 774 603 774 598.500 L 774 594 783 594 L 792 594 792 589.500 L 792 585 801 585 L 810 585 810 580.500 L 810 576 819 576 L 828 576 828 571.500 L 828 567 832.500 567 L 837 567 837 562.500 L 837 558 846 558 L 855 558 855 553.500 L 855 549 859.500 549 L 864 549 864 540 L 864 531 868.500 531 L 873 531 873 526.500 L 873 522 877.500 522 L 882 522 882 504 L 882 486 886.500 486 L 891 486 891 481.500 L 891 477 882 477 L 873 477 873 472.500 L 873 468 868.500 468 L 864 468 864 459 L 864 450 859.500 450 L 855 450 855 445.500 L 855 441 846 441 L 837 441 837 436.500 L 837 432 832.500 432 L 828 432 828 427.500 L 828 423 819 423 L 810 423 810 418.500 L 810 414 801 414 L 792 414 792 409.500 L 792 405 778.500 405 L 765 405 765 400.500 L 765 396 751.500 396 L 738 396 738 391.500 L 738 387 720 387 L 702 387 702 382.500 L 702 378 675 378 L 648 378 648 373.500 L 648 369 580.500 369 L 513 369 513 373.500 M 918 373.500 L 918 378 922.500 378 L 927 378 927 373.500 L 927 369 922.500 369 L 918 369 918 373.500 M 252 481.500 L 252 486 256.500 486 L 261 486 261 481.500 L 261 477 256.500 477 L 252 477 252 481.500 M 189 499.500 L 189 504 180 504 L 171 504 171 508.500 L 171 513 162 513 L 153 513 153 517.500 L 153 522 148.500 522 L 144 522 144 526.500 L 144 531 139.500 531 L 135 531 135 535.500 L 135 540 139.500 540 L 144 540 144 535.500 L 144 531 148.500 531 L 153 531 153 526.500 L 153 522 166.500 522 L 180 522 180 517.500 L 180 513 189 513 L 198 513 198 508.500 L 198 504 229.500 504 L 261 504 261 499.500 L 261 495 225 495 L 189 495 189 499.500 M 801 607.500 L 801 612 787.500 612 L 774 612 774 616.500 L 774 621 760.500 621 L 747 621 747 625.500 L 747 630 729 630 L 711 630 711 634.500 L 711 639 697.500 639 L 684 639 684 634.500 L 684 630 679.500 630 L 675 630 675 634.500 L 675 639 670.500 639 L 666 639 666 643.500 L 666 648 585 648 L 504 648 504 643.500 L 504 639 477 639 L 450 639 450 634.500 L 450 630 432 630 L 414 630 414 625.500 L 414 621 405 621 L 396 621 396 616.500 L 396 612 382.500 612 L 369 612 369 616.500 L 369 621 382.500 621 L 396 621 396 625.500 L 396 630 405 630 L 414 630 414 634.500 L 414 639 432 639 L 450 639 450 643.500 L 450 648 477 648 L 504 648 504 652.500 L 504 657 585 657 L 666 657 666 652.500 L 666 648 688.500 648 L 711 648 711 643.500 L 711 639 729 639 L 747 639 747 634.500 L 747 630 760.500 630 L 774 630 774 625.500 L 774 621 787.500 621 L 801 621 801 616.500 L 801 612 810 612 L 819 612 819 607.500 L 819 603 810 603 L 801 603 801 607.500 M 945 900 L 945 918 949.500 918 L 954 918 954 945 L 954 972 949.500 972 L 945 972 945 976.500 L 945 981 940.500 981 L 936 981 936 990 L 936 999 931.500 999 L 927 999 927 1003.500 L 927 1008 922.500 1008 L 918 1008 918 1012.500 L 918 1017 913.500 1017 L 909 1017 909 1021.500 L 909 1026 904.500 1026 L 900 1026 900 1030.500 L 900 1035 895.500 1035 L 891 1035 891 1039.500 L 891 1044 877.500 1044 L 864 1044 864 1048.500 L 864 1053 859.500 1053 L 855 1053 855 1057.500 L 855 1062 841.500 1062 L 828 1062 828 1066.500 L 828 1071 819 1071 L 810 1071 810 1075.500 L 810 1080 787.500 1080 L 765 1080 765 1084.500 L 765 1089 720 1089 L 675 1089 675 1093.500 L 675 1098 580.500 1098 L 486 1098 486 1093.500 L 486 1089 481.500 1089 L 477 1089 477 1093.500 L 477 1098 472.500 1098 L 468 1098 468 1093.500 L 468 1089 427.500 1089 L 387 1089 387 1084.500 L 387 1080 373.500 1080 L 360 1080 360 1075.500 L 360 1071 351 1071 L 342 1071 342 1066.500 L 342 1062 333 1062 L 324 1062 324 1057.500 L 324 1053 310.500 1053 L 297 1053 297 1048.500 L 297 1044 292.500 1044 L 288 1044 288 1039.500 L 288 1035 279 1035 L 270 1035 270 1030.500 L 270 1026 261 1026 L 252 1026 252 1021.500 L 252 1017 247.500 1017 L 243 1017 243 1012.500 L 243 1008 238.500 1008 L 234 1008 234 1003.500 L 234 999 229.500 999 L 225 999 225 994.500 L 225 990 220.500 990 L 216 990 216 981 L 216 972 211.500 972 L 207 972 207 981 L 207 990 211.500 990 L 216 990 216 994.500 L 216 999 220.500 999 L 225 999 225 1003.500 L 225 1008 229.500 1008 L 234 1008 234 1012.500 L 234 1017 238.500 1017 L 243 1017 243 1021.500 L 243 1026 247.500 1026 L 252 1026 252 1030.500 L 252 1035 256.500 1035 L 261 1035 261 1039.500 L 261 1044 270 1044 L 279 1044 279 1048.500 L 279 1053 288 1053 L 297 1053 297 1057.500 L 297 1062 306 1062 L 315 1062 315 1066.500 L 315 1071 328.500 1071 L 342 1071 342 1075.500 L 342 1080 351 1080 L 360 1080 360 1084.500 L 360 1089 373.500 1089 L 387 1089 387 1093.500 L 387 1098 409.500 1098 L 432 1098 432 1102.500 L 432 1107 454.500 1107 L 477 1107 477 1102.500 L 477 1098 481.500 1098 L 486 1098 486 1107 L 486 1116 585 1116 L 684 1116 684 1111.500 L 684 1107 706.500 1107 L 729 1107 729 1102.500 L 729 1098 751.500 1098 L 774 1098 774 1093.500 L 774 1089 792 1089 L 810 1089 810 1084.500 L 810 1080 819 1080 L 828 1080 828 1075.500 L 828 1071 841.500 1071 L 855 1071 855 1066.500 L 855 1062 864 1062 L 873 1062 873 1057.500 L 873 1053 882 1053 L 891 1053 891 1048.500 L 891 1044 895.500 1044 L 900 1044 900 1039.500 L 900 1035 904.500 1035 L 909 1035 909 1030.500 L 909 1026 918 1026 L 927 1026 927 1021.500 L 927 1017 931.500 1017 L 936 1017 936 1012.500 L 936 1008 940.500 1008 L 945 1008 945 999 L 945 990 949.500 990 L 954 990 954 985.500 L 954 981 958.500 981 L 963 981 963 976.500 L 963 972 967.500 972 L 972 972 972 949.500 L 972 927 967.500 927 L 963 927 963 913.500 L 963 900 958.500 900 L 954 900 954 891 L 954 882 949.500 882 L 945 882 945 900 M 207 904.500 L 207 909 211.500 909 L 216 909 216 904.500 L 216 900 211.500 900 L 207 900 207 904.500 M 198 940.500 L 198 963 202.500 963 L 207 963 207 940.500 L 207 918 202.500 918 L 198 918 198 940.500 M 1143 1138.500 L 1143 1143 1125 1143 L 1107 1143 1107 1147.500 L 1107 1152 1129.500 1152 L 1152 1152 1152 1143 L 1152 1134 1147.500 1134 L 1143 1134 1143 1138.500" stroke="none" fill="#ffffff" fill-rule="evenodd"/><path d="M 414 391.500 L 414 396 405 396 L 396 396 396 400.500 L 396 405 405 405 L 414 405 414 400.500 L 414 396 418.500 396 L 423 396 423 391.500 L 423 387 418.500 387 L 414 387 414 391.500 M 702 400.500 L 702 405 720 405 L 738 405 738 409.500 L 738 414 742.500 414 L 747 414 747 418.500 L 747 423 751.500 423 L 756 423 756 427.500 L 756 432 760.500 432 L 765 432 765 441 L 765 450 760.500 450 L 756 450 756 445.500 L 756 441 747 441 L 738 441 738 436.500 L 738 432 724.500 432 L 711 432 711 436.500 L 711 441 715.500 441 L 720 441 720 445.500 L 720 450 733.500 450 L 747 450 747 454.500 L 747 459 751.500 459 L 756 459 756 463.500 L 756 468 751.500 468 L 747 468 747 472.500 L 747 477 751.500 477 L 756 477 756 495 L 756 513 747 513 L 738 513 738 508.500 L 738 504 733.500 504 L 729 504 729 499.500 L 729 495 711 495 L 693 495 693 490.500 L 693 486 675 486 L 657 486 657 481.500 L 657 477 630 477 L 603 477 603 481.500 L 603 486 612 486 L 621 486 621 490.500 L 621 495 625.500 495 L 630 495 630 499.500 L 630 504 639 504 L 648 504 648 513 L 648 522 652.500 522 L 657 522 657 535.500 L 657 549 652.500 549 L 648 549 648 544.500 L 648 540 634.500 540 L 621 540 621 535.500 L 621 531 607.500 531 L 594 531 594 544.500 L 594 558 603 558 L 612 558 612 562.500 L 612 567 616.500 567 L 621 567 621 571.500 L 621 576 625.500 576 L 630 576 630 589.500 L 630 603 625.500 603 L 621 603 621 607.500 L 621 612 607.500 612 L 594 612 594 607.500 L 594 603 589.500 603 L 585 603 585 598.500 L 585 594 580.500 594 L 576 594 576 598.500 L 576 603 571.500 603 L 567 603 567 607.500 L 567 612 553.500 612 L 540 612 540 607.500 L 540 603 535.500 603 L 531 603 531 594 L 531 585 535.500 585 L 540 585 540 576 L 540 567 544.500 567 L 549 567 549 562.500 L 549 558 553.500 558 L 558 558 558 544.500 L 558 531 549 531 L 540 531 540 535.500 L 540 540 535.500 540 L 531 540 531 544.500 L 531 549 522 549 L 513 549 513 553.500 L 513 558 508.500 558 L 504 558 504 535.500 L 504 513 508.500 513 L 513 513 513 508.500 L 513 504 517.500 504 L 522 504 522 499.500 L 522 495 526.500 495 L 531 495 531 490.500 L 531 486 535.500 486 L 540 486 540 481.500 L 540 477 522 477 L 504 477 504 481.500 L 504 486 490.500 486 L 477 486 477 490.500 L 477 495 468 495 L 459 495 459 499.500 L 459 504 450 504 L 441 504 441 508.500 L 441 513 436.500 513 L 432 513 432 522 L 432 531 427.500 531 L 423 531 423 535.500 L 423 540 418.500 540 L 414 540 414 544.500 L 414 549 405 549 L 396 549 396 553.500 L 396 558 391.500 558 L 387 558 387 553.500 L 387 549 382.500 549 L 378 549 378 544.500 L 378 540 387 540 L 396 540 396 531 L 396 522 391.500 522 L 387 522 387 513 L 387 504 382.500 504 L 378 504 378 499.500 L 378 495 373.500 495 L 369 495 369 490.500 L 369 486 378 486 L 387 486 387 481.500 L 387 477 391.500 477 L 396 477 396 468 L 396 459 409.500 459 L 423 459 423 454.500 L 423 450 427.500 450 L 432 450 432 445.500 L 432 441 436.500 441 L 441 441 441 436.500 L 441 432 459 432 L 477 432 477 427.500 L 477 423 454.500 423 L 432 423 432 427.500 L 432 432 423 432 L 414 432 414 436.500 L 414 441 409.500 441 L 405 441 405 445.500 L 405 450 391.500 450 L 378 450 378 459 L 378 468 373.500 468 L 369 468 369 477 L 369 486 364.500 486 L 360 486 360 490.500 L 360 495 355.500 495 L 351 495 351 481.500 L 351 468 355.500 468 L 360 468 360 454.500 L 360 441 355.500 441 L 351 441 351 450 L 351 459 346.500 459 L 342 459 342 472.500 L 342 486 337.500 486 L 333 486 333 495 L 333 504 337.500 504 L 342 504 342 508.500 L 342 513 346.500 513 L 351 513 351 517.500 L 351 522 355.500 522 L 360 522 360 526.500 L 360 531 364.500 531 L 369 531 369 522 L 369 513 373.500 513 L 378 513 378 526.500 L 378 540 364.500 540 L 351 540 351 535.500 L 351 531 346.500 531 L 342 531 342 526.500 L 342 522 337.500 522 L 333 522 333 517.500 L 333 513 328.500 513 L 324 513 324 495 L 324 477 328.500 477 L 333 477 333 463.500 L 333 450 337.500 450 L 342 450 342 441 L 342 432 355.500 432 L 369 432 369 427.500 L 369 423 373.500 423 L 378 423 378 418.500 L 378 414 382.500 414 L 387 414 387 409.500 L 387 405 382.500 405 L 378 405 378 409.500 L 378 414 369 414 L 360 414 360 418.500 L 360 423 351 423 L 342 423 342 427.500 L 342 432 337.500 432 L 333 432 333 436.500 L 333 441 328.500 441 L 324 441 324 445.500 L 324 450 319.500 450 L 315 450 315 468 L 315 486 310.500 486 L 306 486 306 499.500 L 306 513 310.500 513 L 315 513 315 522 L 315 531 328.500 531 L 342 531 342 535.500 L 342 540 346.500 540 L 351 540 351 544.500 L 351 549 355.500 549 L 360 549 360 553.500 L 360 558 364.500 558 L 369 558 369 567 L 369 576 378 576 L 387 576 387 580.500 L 387 585 396 585 L 405 585 405 594 L 405 603 441 603 L 477 603 477 607.500 L 477 612 499.500 612 L 522 612 522 616.500 L 522 621 585 621 L 648 621 648 616.500 L 648 612 670.500 612 L 693 612 693 603 L 693 594 706.500 594 L 720 594 720 589.500 L 720 585 733.500 585 L 747 585 747 580.500 L 747 576 774 576 L 801 576 801 571.500 L 801 567 805.500 567 L 810 567 810 562.500 L 810 558 805.500 558 L 801 558 801 553.500 L 801 549 810 549 L 819 549 819 553.500 L 819 558 823.500 558 L 828 558 828 553.500 L 828 549 837 549 L 846 549 846 544.500 L 846 540 850.500 540 L 855 540 855 531 L 855 522 859.500 522 L 864 522 864 508.500 L 864 495 859.500 495 L 855 495 855 490.500 L 855 486 850.500 486 L 846 486 846 499.500 L 846 513 841.500 513 L 837 513 837 517.500 L 837 522 819 522 L 801 522 801 526.500 L 801 531 796.500 531 L 792 531 792 535.500 L 792 540 787.500 540 L 783 540 783 544.500 L 783 549 774 549 L 765 549 765 553.500 L 765 558 760.500 558 L 756 558 756 562.500 L 756 567 733.500 567 L 711 567 711 562.500 L 711 558 706.500 558 L 702 558 702 553.500 L 702 549 693 549 L 684 549 684 540 L 684 531 688.500 531 L 693 531 693 526.500 L 693 522 702 522 L 711 522 711 526.500 L 711 531 724.500 531 L 738 531 738 535.500 L 738 540 751.500 540 L 765 540 765 535.500 L 765 531 774 531 L 783 531 783 526.500 L 783 522 787.500 522 L 792 522 792 517.500 L 792 513 810 513 L 828 513 828 508.500 L 828 504 832.500 504 L 837 504 837 495 L 837 486 832.500 486 L 828 486 828 481.500 L 828 477 823.500 477 L 819 477 819 472.500 L 819 468 828 468 L 837 468 837 472.500 L 837 477 841.500 477 L 846 477 846 472.500 L 846 468 841.500 468 L 837 468 837 463.500 L 837 459 828 459 L 819 459 819 454.500 L 819 450 814.500 450 L 810 450 810 445.500 L 810 441 801 441 L 792 441 792 459 L 792 477 778.500 477 L 765 477 765 468 L 765 459 774 459 L 783 459 783 445.500 L 783 432 787.500 432 L 792 432 792 423 L 792 414 787.500 414 L 783 414 783 409.500 L 783 405 769.500 405 L 756 405 756 400.500 L 756 396 729 396 L 702 396 702 400.500 M 774 423 L 774 432 778.500 432 L 783 432 783 423 L 783 414 778.500 414 L 774 414 774 423 M 801 463.500 L 801 468 810 468 L 819 468 819 463.500 L 819 459 810 459 L 801 459 801 463.500 M 666 504 L 666 513 670.500 513 L 675 513 675 517.500 L 675 522 670.500 522 L 666 522 666 544.500 L 666 567 657 567 L 648 567 648 585 L 648 603 643.500 603 L 639 603 639 607.500 L 639 612 643.500 612 L 648 612 648 607.500 L 648 603 652.500 603 L 657 603 657 598.500 L 657 594 661.500 594 L 666 594 666 589.500 L 666 585 670.500 585 L 675 585 675 553.500 L 675 522 684 522 L 693 522 693 508.500 L 693 495 679.500 495 L 666 495 666 504 M 486 508.500 L 486 513 477 513 L 468 513 468 517.500 L 468 522 463.500 522 L 459 522 459 531 L 459 540 454.500 540 L 450 540 450 549 L 450 558 445.500 558 L 441 558 441 562.500 L 441 567 427.500 567 L 414 567 414 562.500 L 414 558 405 558 L 396 558 396 562.500 L 396 567 400.500 567 L 405 567 405 571.500 L 405 576 432 576 L 459 576 459 580.500 L 459 585 463.500 585 L 468 585 468 580.500 L 468 576 472.500 576 L 477 576 477 580.500 L 477 585 499.500 585 L 522 585 522 580.500 L 522 576 526.500 576 L 531 576 531 571.500 L 531 567 522 567 L 513 567 513 571.500 L 513 576 495 576 L 477 576 477 567 L 477 558 472.500 558 L 468 558 468 544.500 L 468 531 472.500 531 L 477 531 477 526.500 L 477 522 486 522 L 495 522 495 513 L 495 504 490.500 504 L 486 504 486 508.500" stroke="none" fill="#417707" fill-rule="evenodd"/><path d="M 666 382.500 L 666 387 679.500 387 L 693 387 693 391.500 L 693 396 715.500 396 L 738 396 738 391.500 L 738 387 720 387 L 702 387 702 382.500 L 702 378 684 378 L 666 378 666 382.500 M 423 391.500 L 423 396 418.500 396 L 414 396 414 400.500 L 414 405 400.500 405 L 387 405 387 409.500 L 387 414 382.500 414 L 378 414 378 418.500 L 378 423 373.500 423 L 369 423 369 427.500 L 369 432 364.500 432 L 360 432 360 436.500 L 360 441 369 441 L 378 441 378 436.500 L 378 432 382.500 432 L 387 432 387 427.500 L 387 423 391.500 423 L 396 423 396 418.500 L 396 414 409.500 414 L 423 414 423 409.500 L 423 405 427.500 405 L 432 405 432 400.500 L 432 396 441 396 L 450 396 450 391.500 L 450 387 436.500 387 L 423 387 423 391.500 M 549 400.500 L 549 405 540 405 L 531 405 531 409.500 L 531 414 490.500 414 L 450 414 450 418.500 L 450 423 463.500 423 L 477 423 477 427.500 L 477 432 459 432 L 441 432 441 436.500 L 441 441 436.500 441 L 432 441 432 445.500 L 432 450 441 450 L 450 450 450 445.500 L 450 441 468 441 L 486 441 486 436.500 L 486 432 504 432 L 522 432 522 427.500 L 522 423 526.500 423 L 531 423 531 418.500 L 531 414 544.500 414 L 558 414 558 409.500 L 558 405 562.500 405 L 567 405 567 400.500 L 567 396 558 396 L 549 396 549 400.500 M 576 400.500 L 576 405 585 405 L 594 405 594 409.500 L 594 414 603 414 L 612 414 612 423 L 612 432 634.500 432 L 657 432 657 427.500 L 657 423 643.500 423 L 630 423 630 418.500 L 630 414 621 414 L 612 414 612 409.500 L 612 405 603 405 L 594 405 594 400.500 L 594 396 585 396 L 576 396 576 400.500 M 756 400.500 L 756 405 760.500 405 L 765 405 765 400.500 L 765 396 760.500 396 L 756 396 756 400.500 M 783 409.500 L 783 414 787.500 414 L 792 414 792 409.500 L 792 405 787.500 405 L 783 405 783 409.500 M 702 427.500 L 702 432 684 432 L 666 432 666 436.500 L 666 441 679.500 441 L 693 441 693 445.500 L 693 450 702 450 L 711 450 711 454.500 L 711 459 724.500 459 L 738 459 738 463.500 L 738 468 747 468 L 756 468 756 463.500 L 756 459 751.500 459 L 747 459 747 454.500 L 747 450 733.500 450 L 720 450 720 445.500 L 720 441 715.500 441 L 711 441 711 436.500 L 711 432 720 432 L 729 432 729 427.500 L 729 423 715.500 423 L 702 423 702 427.500 M 792 432 L 792 441 801 441 L 810 441 810 445.500 L 810 450 814.500 450 L 819 450 819 454.500 L 819 459 828 459 L 837 459 837 463.500 L 837 468 841.500 468 L 846 468 846 477 L 846 486 850.500 486 L 855 486 855 490.500 L 855 495 859.500 495 L 864 495 864 508.500 L 864 522 859.500 522 L 855 522 855 531 L 855 540 850.500 540 L 846 540 846 544.500 L 846 549 837 549 L 828 549 828 553.500 L 828 558 823.500 558 L 819 558 819 553.500 L 819 549 810 549 L 801 549 801 553.500 L 801 558 805.500 558 L 810 558 810 562.500 L 810 567 814.500 567 L 819 567 819 571.500 L 819 576 823.500 576 L 828 576 828 571.500 L 828 567 832.500 567 L 837 567 837 562.500 L 837 558 846 558 L 855 558 855 553.500 L 855 549 859.500 549 L 864 549 864 540 L 864 531 868.500 531 L 873 531 873 526.500 L 873 522 877.500 522 L 882 522 882 513 L 882 504 877.500 504 L 873 504 873 495 L 873 486 868.500 486 L 864 486 864 481.500 L 864 477 859.500 477 L 855 477 855 468 L 855 459 850.500 459 L 846 459 846 454.500 L 846 450 837 450 L 828 450 828 445.500 L 828 441 823.500 441 L 819 441 819 436.500 L 819 432 810 432 L 801 432 801 427.500 L 801 423 796.500 423 L 792 423 792 432 M 342 445.500 L 342 450 346.500 450 L 351 450 351 445.500 L 351 441 346.500 441 L 342 441 342 445.500 M 396 468 L 396 477 391.500 477 L 387 477 387 481.500 L 387 486 378 486 L 369 486 369 490.500 L 369 495 373.500 495 L 378 495 378 499.500 L 378 504 382.500 504 L 387 504 387 513 L 387 522 391.500 522 L 396 522 396 535.500 L 396 549 400.500 549 L 405 549 405 508.500 L 405 468 409.500 468 L 414 468 414 463.500 L 414 459 405 459 L 396 459 396 468 M 558 463.500 L 558 468 540 468 L 522 468 522 472.500 L 522 477 531 477 L 540 477 540 481.500 L 540 486 535.500 486 L 531 486 531 490.500 L 531 495 535.500 495 L 540 495 540 490.500 L 540 486 544.500 486 L 549 486 549 481.500 L 549 477 553.500 477 L 558 477 558 472.500 L 558 468 562.500 468 L 567 468 567 463.500 L 567 459 562.500 459 L 558 459 558 463.500 M 576 463.500 L 576 468 580.500 468 L 585 468 585 472.500 L 585 477 589.500 477 L 594 477 594 481.500 L 594 486 598.500 486 L 603 486 603 490.500 L 603 495 612 495 L 621 495 621 499.500 L 621 504 625.500 504 L 630 504 630 499.500 L 630 495 625.500 495 L 621 495 621 490.500 L 621 486 612 486 L 603 486 603 481.500 L 603 477 616.500 477 L 630 477 630 472.500 L 630 468 607.500 468 L 585 468 585 463.500 L 585 459 580.500 459 L 576 459 576 463.500 M 765 463.500 L 765 468 769.500 468 L 774 468 774 463.500 L 774 459 769.500 459 L 765 459 765 463.500 M 783 472.500 L 783 477 787.500 477 L 792 477 792 472.500 L 792 468 787.500 468 L 783 468 783 472.500 M 657 481.500 L 657 486 661.500 486 L 666 486 666 481.500 L 666 477 661.500 477 L 657 477 657 481.500 M 747 481.500 L 747 486 751.500 486 L 756 486 756 481.500 L 756 477 751.500 477 L 747 477 747 481.500 M 297 499.500 L 297 513 301.500 513 L 306 513 306 499.500 L 306 486 301.500 486 L 297 486 297 499.500 M 468 490.500 L 468 495 472.500 495 L 477 495 477 490.500 L 477 486 472.500 486 L 468 486 468 490.500 M 693 490.500 L 693 495 688.500 495 L 684 495 684 499.500 L 684 504 688.500 504 L 693 504 693 499.500 L 693 495 697.500 495 L 702 495 702 490.500 L 702 486 697.500 486 L 693 486 693 490.500 M 450 499.500 L 450 504 454.500 504 L 459 504 459 499.500 L 459 495 454.500 495 L 450 495 450 499.500 M 729 499.500 L 729 504 733.500 504 L 738 504 738 508.500 L 738 513 742.500 513 L 747 513 747 508.500 L 747 504 742.500 504 L 738 504 738 499.500 L 738 495 733.500 495 L 729 495 729 499.500 M 324 508.500 L 324 513 328.500 513 L 333 513 333 508.500 L 333 504 328.500 504 L 324 504 324 508.500 M 432 508.500 L 432 513 436.500 513 L 441 513 441 508.500 L 441 504 436.500 504 L 432 504 432 508.500 M 639 508.500 L 639 513 643.500 513 L 648 513 648 508.500 L 648 504 643.500 504 L 639 504 639 508.500 M 666 508.500 L 666 513 670.500 513 L 675 513 675 517.500 L 675 522 679.500 522 L 684 522 684 517.500 L 684 513 679.500 513 L 675 513 675 508.500 L 675 504 670.500 504 L 666 504 666 508.500 M 504 517.500 L 504 522 508.500 522 L 513 522 513 517.500 L 513 513 508.500 513 L 504 513 504 517.500 M 792 517.500 L 792 522 796.500 522 L 801 522 801 517.500 L 801 513 796.500 513 L 792 513 792 517.500 M 423 526.500 L 423 531 418.500 531 L 414 531 414 535.500 L 414 540 418.500 540 L 423 540 423 535.500 L 423 531 427.500 531 L 432 531 432 526.500 L 432 522 427.500 522 L 423 522 423 526.500 M 567 526.500 L 567 531 562.500 531 L 558 531 558 540 L 558 549 562.500 549 L 567 549 567 544.500 L 567 540 576 540 L 585 540 585 544.500 L 585 549 589.500 549 L 594 549 594 540 L 594 531 589.500 531 L 585 531 585 526.500 L 585 522 576 522 L 567 522 567 526.500 M 315 535.500 L 315 540 324 540 L 333 540 333 544.500 L 333 549 337.500 549 L 342 549 342 553.500 L 342 558 346.500 558 L 351 558 351 562.500 L 351 567 355.500 567 L 360 567 360 576 L 360 585 369 585 L 378 585 378 589.500 L 378 594 387 594 L 396 594 396 598.500 L 396 603 400.500 603 L 405 603 405 594 L 405 585 396 585 L 387 585 387 580.500 L 387 576 378 576 L 369 576 369 567 L 369 558 364.500 558 L 360 558 360 553.500 L 360 549 355.500 549 L 351 549 351 544.500 L 351 540 346.500 540 L 342 540 342 535.500 L 342 531 328.500 531 L 315 531 315 535.500 M 729 535.500 L 729 540 733.500 540 L 738 540 738 535.500 L 738 531 733.500 531 L 729 531 729 535.500 M 783 535.500 L 783 540 778.500 540 L 774 540 774 544.500 L 774 549 778.500 549 L 783 549 783 544.500 L 783 540 787.500 540 L 792 540 792 535.500 L 792 531 787.500 531 L 783 531 783 535.500 M 684 544.500 L 684 549 688.500 549 L 693 549 693 544.500 L 693 540 688.500 540 L 684 540 684 544.500 M 459 558 L 459 567 454.500 567 L 450 567 450 571.500 L 450 576 454.500 576 L 459 576 459 571.500 L 459 567 468 567 L 477 567 477 562.500 L 477 558 472.500 558 L 468 558 468 553.500 L 468 549 463.500 549 L 459 549 459 558 M 702 553.500 L 702 558 706.500 558 L 711 558 711 562.500 L 711 567 715.500 567 L 720 567 720 562.500 L 720 558 715.500 558 L 711 558 711 553.500 L 711 549 706.500 549 L 702 549 702 553.500 M 756 553.500 L 756 558 751.500 558 L 747 558 747 562.500 L 747 567 751.500 567 L 756 567 756 562.500 L 756 558 760.500 558 L 765 558 765 553.500 L 765 549 760.500 549 L 756 549 756 553.500 M 648 571.500 L 648 576 657 576 L 666 576 666 571.500 L 666 567 657 567 L 648 567 648 571.500 M 657 589.500 L 657 594 661.500 594 L 666 594 666 589.500 L 666 585 661.500 585 L 657 585 657 589.500 M 639 607.500 L 639 612 643.500 612 L 648 612 648 616.500 L 648 621 594 621 L 540 621 540 625.500 L 540 630 594 630 L 648 630 648 625.500 L 648 621 657 621 L 666 621 666 616.500 L 666 612 657 612 L 648 612 648 607.500 L 648 603 643.500 603 L 639 603 639 607.500 M 153 652.500 L 153 684 157.500 684 L 162 684 162 693 L 162 702 166.500 702 L 171 702 171 711 L 171 720 175.500 720 L 180 720 180 729 L 180 738 184.500 738 L 189 738 189 747 L 189 756 193.500 756 L 198 756 198 760.500 L 198 765 202.500 765 L 207 765 207 769.500 L 207 774 211.500 774 L 216 774 216 778.500 L 216 783 225 783 L 234 783 234 787.500 L 234 792 243 792 L 252 792 252 796.500 L 252 801 261 801 L 270 801 270 805.500 L 270 810 283.500 810 L 297 810 297 814.500 L 297 819 306 819 L 315 819 315 810 L 315 801 319.500 801 L 324 801 324 814.500 L 324 828 328.500 828 L 333 828 333 841.500 L 333 855 337.500 855 L 342 855 342 864 L 342 873 346.500 873 L 351 873 351 882 L 351 891 346.500 891 L 342 891 342 886.500 L 342 882 333 882 L 324 882 324 886.500 L 324 891 319.500 891 L 315 891 315 895.500 L 315 900 310.500 900 L 306 900 306 904.500 L 306 909 301.500 909 L 297 909 297 931.500 L 297 954 306 954 L 315 954 315 963 L 315 972 319.500 972 L 324 972 324 976.500 L 324 981 328.500 981 L 333 981 333 985.500 L 333 990 337.500 990 L 342 990 342 994.500 L 342 999 351 999 L 360 999 360 1003.500 L 360 1008 369 1008 L 378 1008 378 1012.500 L 378 1017 391.500 1017 L 405 1017 405 1021.500 L 405 1026 418.500 1026 L 432 1026 432 1030.500 L 432 1035 454.500 1035 L 477 1035 477 1039.500 L 477 1044 580.500 1044 L 684 1044 684 1039.500 L 684 1035 711 1035 L 738 1035 738 1030.500 L 738 1026 751.500 1026 L 765 1026 765 1021.500 L 765 1017 778.500 1017 L 792 1017 792 1012.500 L 792 1008 801 1008 L 810 1008 810 1003.500 L 810 999 819 999 L 828 999 828 994.500 L 828 990 832.500 990 L 837 990 837 985.500 L 837 981 841.500 981 L 846 981 846 976.500 L 846 972 850.500 972 L 855 972 855 963 L 855 954 859.500 954 L 864 954 864 931.500 L 864 909 859.500 909 L 855 909 855 904.500 L 855 900 850.500 900 L 846 900 846 895.500 L 846 891 841.500 891 L 837 891 837 886.500 L 837 882 832.500 882 L 828 882 828 886.500 L 828 891 823.500 891 L 819 891 819 886.500 L 819 882 814.500 882 L 810 882 810 886.500 L 810 891 805.500 891 L 801 891 801 895.500 L 801 900 796.500 900 L 792 900 792 904.500 L 792 909 787.500 909 L 783 909 783 913.500 L 783 918 778.500 918 L 774 918 774 922.500 L 774 927 769.500 927 L 765 927 765 931.500 L 765 936 760.500 936 L 756 936 756 940.500 L 756 945 751.500 945 L 747 945 747 949.500 L 747 954 742.500 954 L 738 954 738 958.500 L 738 963 733.500 963 L 729 963 729 967.500 L 729 972 724.500 972 L 720 972 720 976.500 L 720 981 729 981 L 738 981 738 985.500 L 738 990 724.500 990 L 711 990 711 994.500 L 711 999 702 999 L 693 999 693 1003.500 L 693 1008 679.500 1008 L 666 1008 666 1012.500 L 666 1017 585 1017 L 504 1017 504 1012.500 L 504 1008 571.500 1008 L 639 1008 639 1003.500 L 639 999 643.500 999 L 648 999 648 994.500 L 648 990 652.500 990 L 657 990 657 985.500 L 657 981 661.500 981 L 666 981 666 976.500 L 666 972 670.500 972 L 675 972 675 963 L 675 954 679.500 954 L 684 954 684 949.500 L 684 945 666 945 L 648 945 648 949.500 L 648 954 589.500 954 L 531 954 531 949.500 L 531 945 513 945 L 495 945 495 940.500 L 495 936 481.500 936 L 468 936 468 931.500 L 468 927 454.500 927 L 441 927 441 922.500 L 441 918 432 918 L 423 918 423 909 L 423 900 414 900 L 405 900 405 895.500 L 405 891 400.500 891 L 396 891 396 886.500 L 396 882 391.500 882 L 387 882 387 877.500 L 387 873 382.500 873 L 378 873 378 864 L 378 855 373.500 855 L 369 855 369 850.500 L 369 846 364.500 846 L 360 846 360 841.500 L 360 837 355.500 837 L 351 837 351 828 L 351 819 346.500 819 L 342 819 342 810 L 342 801 337.500 801 L 333 801 333 796.500 L 333 792 328.500 792 L 324 792 324 778.500 L 324 765 319.500 765 L 315 765 315 751.500 L 315 738 310.500 738 L 306 738 306 724.500 L 306 711 301.500 711 L 297 711 297 724.500 L 297 738 301.500 738 L 306 738 306 756 L 306 774 292.500 774 L 279 774 279 769.500 L 279 765 265.500 765 L 252 765 252 760.500 L 252 756 243 756 L 234 756 234 751.500 L 234 747 229.500 747 L 225 747 225 742.500 L 225 738 220.500 738 L 216 738 216 733.500 L 216 729 211.500 729 L 207 729 207 724.500 L 207 720 202.500 720 L 198 720 198 715.500 L 198 711 193.500 711 L 189 711 189 706.500 L 189 702 184.500 702 L 180 702 180 693 L 180 684 175.500 684 L 171 684 171 670.500 L 171 657 166.500 657 L 162 657 162 639 L 162 621 157.500 621 L 153 621 153 652.500 M 306 787.500 L 306 801 310.500 801 L 315 801 315 787.500 L 315 774 310.500 774 L 306 774 306 787.500 M 351 900 L 351 909 355.500 909 L 360 909 360 913.500 L 360 918 364.500 918 L 369 918 369 922.500 L 369 927 373.500 927 L 378 927 378 931.500 L 378 936 382.500 936 L 387 936 387 940.500 L 387 945 391.500 945 L 396 945 396 949.500 L 396 954 400.500 954 L 405 954 405 958.500 L 405 963 409.500 963 L 414 963 414 967.500 L 414 972 418.500 972 L 423 972 423 976.500 L 423 981 427.500 981 L 432 981 432 985.500 L 432 990 445.500 990 L 459 990 459 994.500 L 459 999 468 999 L 477 999 477 1003.500 L 477 1008 490.500 1008 L 504 1008 504 1003.500 L 504 999 490.500 999 L 477 999 477 994.500 L 477 990 468 990 L 459 990 459 985.500 L 459 981 445.500 981 L 432 981 432 976.500 L 432 972 427.500 972 L 423 972 423 967.500 L 423 963 418.500 963 L 414 963 414 958.500 L 414 954 409.500 954 L 405 954 405 949.500 L 405 945 400.500 945 L 396 945 396 940.500 L 396 936 391.500 936 L 387 936 387 931.500 L 387 927 382.500 927 L 378 927 378 922.500 L 378 918 373.500 918 L 369 918 369 913.500 L 369 909 364.500 909 L 360 909 360 900 L 360 891 355.500 891 L 351 891 351 900 M 810 900 L 810 909 805.500 909 L 801 909 801 913.500 L 801 918 796.500 918 L 792 918 792 922.500 L 792 927 787.500 927 L 783 927 783 931.500 L 783 936 778.500 936 L 774 936 774 940.500 L 774 945 769.500 945 L 765 945 765 949.500 L 765 954 760.500 954 L 756 954 756 958.500 L 756 963 751.500 963 L 747 963 747 967.500 L 747 972 742.500 972 L 738 972 738 976.500 L 738 981 742.500 981 L 747 981 747 976.500 L 747 972 751.500 972 L 756 972 756 967.500 L 756 963 760.500 963 L 765 963 765 958.500 L 765 954 769.500 954 L 774 954 774 949.500 L 774 945 778.500 945 L 783 945 783 940.500 L 783 936 787.500 936 L 792 936 792 931.500 L 792 927 796.500 927 L 801 927 801 922.500 L 801 918 805.500 918 L 810 918 810 913.500 L 810 909 814.500 909 L 819 909 819 900 L 819 891 814.500 891 L 810 891 810 900" stroke="none" fill="#c1e080" fill-rule="evenodd"/><path d="M 513 373.500 L 513 378 486 378 L 459 378 459 382.500 L 459 387 454.500 387 L 450 387 450 391.500 L 450 396 441 396 L 432 396 432 400.500 L 432 405 427.500 405 L 423 405 423 409.500 L 423 414 409.500 414 L 396 414 396 418.500 L 396 423 391.500 423 L 387 423 387 427.500 L 387 432 382.500 432 L 378 432 378 436.500 L 378 441 369 441 L 360 441 360 436.500 L 360 432 351 432 L 342 432 342 436.500 L 342 441 351 441 L 360 441 360 454.500 L 360 468 355.500 468 L 351 468 351 481.500 L 351 495 355.500 495 L 360 495 360 490.500 L 360 486 364.500 486 L 369 486 369 477 L 369 468 373.500 468 L 378 468 378 459 L 378 450 391.500 450 L 405 450 405 445.500 L 405 441 409.500 441 L 414 441 414 436.500 L 414 432 423 432 L 432 432 432 427.500 L 432 423 441 423 L 450 423 450 418.500 L 450 414 490.500 414 L 531 414 531 418.500 L 531 423 526.500 423 L 522 423 522 427.500 L 522 432 504 432 L 486 432 486 436.500 L 486 441 468 441 L 450 441 450 445.500 L 450 450 436.500 450 L 423 450 423 454.500 L 423 459 418.500 459 L 414 459 414 463.500 L 414 468 409.500 468 L 405 468 405 508.500 L 405 549 409.500 549 L 414 549 414 540 L 414 531 418.500 531 L 423 531 423 526.500 L 423 522 427.500 522 L 432 522 432 513 L 432 504 441 504 L 450 504 450 499.500 L 450 495 459 495 L 468 495 468 490.500 L 468 486 486 486 L 504 486 504 481.500 L 504 477 513 477 L 522 477 522 472.500 L 522 468 540 468 L 558 468 558 472.500 L 558 477 553.500 477 L 549 477 549 481.500 L 549 486 544.500 486 L 540 486 540 490.500 L 540 495 531 495 L 522 495 522 499.500 L 522 504 517.500 504 L 513 504 513 513 L 513 522 508.500 522 L 504 522 504 540 L 504 558 508.500 558 L 513 558 513 553.500 L 513 549 522 549 L 531 549 531 544.500 L 531 540 535.500 540 L 540 540 540 535.500 L 540 531 553.500 531 L 567 531 567 526.500 L 567 522 576 522 L 585 522 585 526.500 L 585 531 603 531 L 621 531 621 535.500 L 621 540 634.500 540 L 648 540 648 544.500 L 648 549 652.500 549 L 657 549 657 535.500 L 657 522 652.500 522 L 648 522 648 517.500 L 648 513 643.500 513 L 639 513 639 508.500 L 639 504 630 504 L 621 504 621 499.500 L 621 495 612 495 L 603 495 603 490.500 L 603 486 598.500 486 L 594 486 594 481.500 L 594 477 589.500 477 L 585 477 585 472.500 L 585 468 607.500 468 L 630 468 630 472.500 L 630 477 648 477 L 666 477 666 481.500 L 666 486 684 486 L 702 486 702 490.500 L 702 495 720 495 L 738 495 738 499.500 L 738 504 742.500 504 L 747 504 747 508.500 L 747 513 751.500 513 L 756 513 756 499.500 L 756 486 751.500 486 L 747 486 747 477 L 747 468 742.500 468 L 738 468 738 463.500 L 738 459 724.500 459 L 711 459 711 454.500 L 711 450 702 450 L 693 450 693 445.500 L 693 441 679.500 441 L 666 441 666 436.500 L 666 432 684 432 L 702 432 702 427.500 L 702 423 715.500 423 L 729 423 729 427.500 L 729 432 733.500 432 L 738 432 738 436.500 L 738 441 747 441 L 756 441 756 445.500 L 756 450 760.500 450 L 765 450 765 441 L 765 432 760.500 432 L 756 432 756 427.500 L 756 423 751.500 423 L 747 423 747 418.500 L 747 414 742.500 414 L 738 414 738 409.500 L 738 405 720 405 L 702 405 702 400.500 L 702 396 697.500 396 L 693 396 693 391.500 L 693 387 679.500 387 L 666 387 666 382.500 L 666 378 657 378 L 648 378 648 373.500 L 648 369 580.500 369 L 513 369 513 373.500 M 549 400.500 L 549 405 540 405 L 531 405 531 409.500 L 531 414 544.500 414 L 558 414 558 409.500 L 558 405 562.500 405 L 567 405 567 400.500 L 567 396 558 396 L 549 396 549 400.500 M 576 400.500 L 576 405 585 405 L 594 405 594 409.500 L 594 414 603 414 L 612 414 612 423 L 612 432 634.500 432 L 657 432 657 427.500 L 657 423 643.500 423 L 630 423 630 418.500 L 630 414 621 414 L 612 414 612 409.500 L 612 405 603 405 L 594 405 594 400.500 L 594 396 585 396 L 576 396 576 400.500 M 774 423 L 774 432 778.500 432 L 783 432 783 445.500 L 783 459 778.500 459 L 774 459 774 463.500 L 774 468 769.500 468 L 765 468 765 472.500 L 765 477 774 477 L 783 477 783 472.500 L 783 468 787.500 468 L 792 468 792 450 L 792 432 787.500 432 L 783 432 783 423 L 783 414 778.500 414 L 774 414 774 423 M 792 418.500 L 792 423 796.500 423 L 801 423 801 427.500 L 801 432 810 432 L 819 432 819 436.500 L 819 441 823.500 441 L 828 441 828 445.500 L 828 450 837 450 L 846 450 846 454.500 L 846 459 850.500 459 L 855 459 855 468 L 855 477 859.500 477 L 864 477 864 481.500 L 864 486 868.500 486 L 873 486 873 495 L 873 504 877.500 504 L 882 504 882 490.500 L 882 477 877.500 477 L 873 477 873 472.500 L 873 468 868.500 468 L 864 468 864 459 L 864 450 859.500 450 L 855 450 855 445.500 L 855 441 846 441 L 837 441 837 436.500 L 837 432 832.500 432 L 828 432 828 427.500 L 828 423 819 423 L 810 423 810 418.500 L 810 414 801 414 L 792 414 792 418.500 M 315 445.500 L 315 450 310.500 450 L 306 450 306 459 L 306 468 301.500 468 L 297 468 297 472.500 L 297 477 292.500 477 L 288 477 288 499.500 L 288 522 292.500 522 L 297 522 297 531 L 297 540 301.500 540 L 306 540 306 544.500 L 306 549 310.500 549 L 315 549 315 553.500 L 315 558 324 558 L 333 558 333 562.500 L 333 567 337.500 567 L 342 567 342 571.500 L 342 576 351 576 L 360 576 360 571.500 L 360 567 355.500 567 L 351 567 351 562.500 L 351 558 346.500 558 L 342 558 342 553.500 L 342 549 337.500 549 L 333 549 333 544.500 L 333 540 324 540 L 315 540 315 526.500 L 315 513 306 513 L 297 513 297 499.500 L 297 486 306 486 L 315 486 315 468 L 315 450 319.500 450 L 324 450 324 445.500 L 324 441 319.500 441 L 315 441 315 445.500 M 333 463.500 L 333 477 328.500 477 L 324 477 324 490.500 L 324 504 328.500 504 L 333 504 333 513 L 333 522 337.500 522 L 342 522 342 526.500 L 342 531 346.500 531 L 351 531 351 535.500 L 351 540 364.500 540 L 378 540 378 544.500 L 378 549 382.500 549 L 387 549 387 553.500 L 387 558 391.500 558 L 396 558 396 562.500 L 396 567 400.500 567 L 405 567 405 571.500 L 405 576 427.500 576 L 450 576 450 571.500 L 450 567 454.500 567 L 459 567 459 576 L 459 585 463.500 585 L 468 585 468 580.500 L 468 576 472.500 576 L 477 576 477 580.500 L 477 585 499.500 585 L 522 585 522 580.500 L 522 576 526.500 576 L 531 576 531 571.500 L 531 567 522 567 L 513 567 513 571.500 L 513 576 495 576 L 477 576 477 571.500 L 477 567 468 567 L 459 567 459 558 L 459 549 463.500 549 L 468 549 468 540 L 468 531 472.500 531 L 477 531 477 526.500 L 477 522 486 522 L 495 522 495 513 L 495 504 490.500 504 L 486 504 486 508.500 L 486 513 477 513 L 468 513 468 517.500 L 468 522 463.500 522 L 459 522 459 531 L 459 540 454.500 540 L 450 540 450 549 L 450 558 445.500 558 L 441 558 441 562.500 L 441 567 427.500 567 L 414 567 414 562.500 L 414 558 405 558 L 396 558 396 549 L 396 540 387 540 L 378 540 378 526.500 L 378 513 373.500 513 L 369 513 369 522 L 369 531 364.500 531 L 360 531 360 526.500 L 360 522 355.500 522 L 351 522 351 517.500 L 351 513 346.500 513 L 342 513 342 508.500 L 342 504 337.500 504 L 333 504 333 495 L 333 486 337.500 486 L 342 486 342 472.500 L 342 459 346.500 459 L 351 459 351 454.500 L 351 450 342 450 L 333 450 333 463.500 M 558 463.500 L 558 468 562.500 468 L 567 468 567 463.500 L 567 459 562.500 459 L 558 459 558 463.500 M 576 463.500 L 576 468 580.500 468 L 585 468 585 463.500 L 585 459 580.500 459 L 576 459 576 463.500 M 801 463.500 L 801 468 810 468 L 819 468 819 472.500 L 819 477 823.500 477 L 828 477 828 481.500 L 828 486 832.500 486 L 837 486 837 495 L 837 504 832.500 504 L 828 504 828 508.500 L 828 513 814.500 513 L 801 513 801 517.500 L 801 522 792 522 L 783 522 783 526.500 L 783 531 774 531 L 765 531 765 535.500 L 765 540 747 540 L 729 540 729 535.500 L 729 531 720 531 L 711 531 711 526.500 L 711 522 702 522 L 693 522 693 513 L 693 504 688.500 504 L 684 504 684 499.500 L 684 495 675 495 L 666 495 666 499.500 L 666 504 670.500 504 L 675 504 675 508.500 L 675 513 679.500 513 L 684 513 684 517.500 L 684 522 688.500 522 L 693 522 693 526.500 L 693 531 688.500 531 L 684 531 684 535.500 L 684 540 688.500 540 L 693 540 693 544.500 L 693 549 702 549 L 711 549 711 553.500 L 711 558 715.500 558 L 720 558 720 562.500 L 720 567 733.500 567 L 747 567 747 562.500 L 747 558 751.500 558 L 756 558 756 553.500 L 756 549 765 549 L 774 549 774 544.500 L 774 540 778.500 540 L 783 540 783 535.500 L 783 531 792 531 L 801 531 801 526.500 L 801 522 819 522 L 837 522 837 517.500 L 837 513 841.500 513 L 846 513 846 495 L 846 477 841.500 477 L 837 477 837 472.500 L 837 468 828 468 L 819 468 819 463.500 L 819 459 810 459 L 801 459 801 463.500 M 666 549 L 666 576 657 576 L 648 576 648 589.500 L 648 603 652.500 603 L 657 603 657 594 L 657 585 666 585 L 675 585 675 553.500 L 675 522 670.500 522 L 666 522 666 549 M 567 544.500 L 567 549 562.500 549 L 558 549 558 553.500 L 558 558 553.500 558 L 549 558 549 562.500 L 549 567 544.500 567 L 540 567 540 576 L 540 585 535.500 585 L 531 585 531 594 L 531 603 535.500 603 L 540 603 540 607.500 L 540 612 553.500 612 L 567 612 567 607.500 L 567 603 571.500 603 L 576 603 576 598.500 L 576 594 580.500 594 L 585 594 585 598.500 L 585 603 589.500 603 L 594 603 594 607.500 L 594 612 607.500 612 L 621 612 621 607.500 L 621 603 625.500 603 L 630 603 630 589.500 L 630 576 625.500 576 L 621 576 621 571.500 L 621 567 616.500 567 L 612 567 612 562.500 L 612 558 603 558 L 594 558 594 553.500 L 594 549 589.500 549 L 585 549 585 544.500 L 585 540 576 540 L 567 540 567 544.500 M 801 571.500 L 801 576 774 576 L 747 576 747 580.500 L 747 585 733.500 585 L 720 585 720 589.500 L 720 594 706.500 594 L 693 594 693 603 L 693 612 679.500 612 L 666 612 666 616.500 L 666 621 684 621 L 702 621 702 616.500 L 702 612 724.500 612 L 747 612 747 607.500 L 747 603 760.500 603 L 774 603 774 598.500 L 774 594 783 594 L 792 594 792 589.500 L 792 585 801 585 L 810 585 810 580.500 L 810 576 814.500 576 L 819 576 819 571.500 L 819 567 810 567 L 801 567 801 571.500 M 414 607.500 L 414 612 436.500 612 L 459 612 459 616.500 L 459 621 486 621 L 513 621 513 625.500 L 513 630 526.500 630 L 540 630 540 625.500 L 540 621 531 621 L 522 621 522 616.500 L 522 612 499.500 612 L 477 612 477 607.500 L 477 603 445.500 603 L 414 603 414 607.500" stroke="none" fill="#e6f5ab" fill-rule="evenodd"/><path d="M 513 346.500 L 513 351 481.500 351 L 450 351 450 355.500 L 450 360 432 360 L 414 360 414 364.500 L 414 369 405 369 L 396 369 396 373.500 L 396 378 382.500 378 L 369 378 369 382.500 L 369 387 360 387 L 351 387 351 391.500 L 351 396 342 396 L 333 396 333 400.500 L 333 405 328.500 405 L 324 405 324 409.500 L 324 414 315 414 L 306 414 306 418.500 L 306 423 301.500 423 L 297 423 297 427.500 L 297 432 301.500 432 L 306 432 306 427.500 L 306 423 315 423 L 324 423 324 418.500 L 324 414 328.500 414 L 333 414 333 409.500 L 333 405 342 405 L 351 405 351 400.500 L 351 396 360 396 L 369 396 369 391.500 L 369 387 382.500 387 L 396 387 396 382.500 L 396 378 405 378 L 414 378 414 373.500 L 414 369 432 369 L 450 369 450 364.500 L 450 360 481.500 360 L 513 360 513 355.500 L 513 351 585 351 L 657 351 657 355.500 L 657 360 679.500 360 L 702 360 702 364.500 L 702 369 720 369 L 738 369 738 373.500 L 738 378 751.500 378 L 765 378 765 382.500 L 765 387 778.500 387 L 792 387 792 391.500 L 792 396 801 396 L 810 396 810 400.500 L 810 405 819 405 L 828 405 828 409.500 L 828 414 832.500 414 L 837 414 837 418.500 L 837 423 846 423 L 855 423 855 427.500 L 855 432 864 432 L 873 432 873 427.500 L 873 423 864 423 L 855 423 855 418.500 L 855 414 846 414 L 837 414 837 409.500 L 837 405 832.500 405 L 828 405 828 400.500 L 828 396 819 396 L 810 396 810 391.500 L 810 387 801 387 L 792 387 792 382.500 L 792 378 778.500 378 L 765 378 765 373.500 L 765 369 751.500 369 L 738 369 738 364.500 L 738 360 720 360 L 702 360 702 355.500 L 702 351 679.500 351 L 657 351 657 346.500 L 657 342 585 342 L 513 342 513 346.500 M 846 580.500 L 846 585 841.500 585 L 837 585 837 589.500 L 837 594 828 594 L 819 594 819 598.500 L 819 603 810 603 L 801 603 801 607.500 L 801 612 787.500 612 L 774 612 774 616.500 L 774 621 760.500 621 L 747 621 747 625.500 L 747 630 729 630 L 711 630 711 634.500 L 711 639 688.500 639 L 666 639 666 643.500 L 666 648 585 648 L 504 648 504 643.500 L 504 639 477 639 L 450 639 450 643.500 L 450 648 477 648 L 504 648 504 652.500 L 504 657 585 657 L 666 657 666 652.500 L 666 648 688.500 648 L 711 648 711 643.500 L 711 639 729 639 L 747 639 747 634.500 L 747 630 760.500 630 L 774 630 774 625.500 L 774 621 787.500 621 L 801 621 801 616.500 L 801 612 810 612 L 819 612 819 607.500 L 819 603 828 603 L 837 603 837 598.500 L 837 594 841.500 594 L 846 594 846 589.500 L 846 585 855 585 L 864 585 864 580.500 L 864 576 855 576 L 846 576 846 580.500" stroke="none" fill="#476622" fill-rule="evenodd"/><path d="" stroke="none" fill="#cee0c5" fill-rule="evenodd"/></svg>